<svg style="display: none" viewBox="0 0 765 430" xmlns="http://www.w3.org/2000/svg">
<g id="attack">
<g id="right-leg">
<path id="outline" d="M202.5 244C216.1 241.2 223.5 234 226.5 223L186 203.5C180 209 161.5 216.5 156 218C152.701 218.9 147.063 219.44 142 220.375C134.5 216.751 117.5 220.5 116.5 230C115.7 237.6 119.5 239.667 123 240.5C123.4 247.3 130.167 247.333 133.5 246.5C134.3 251.7 140.167 252.667 143 252.5C144 260 150.5 261 154 260C157.5 259 164.75 251.572 175.5 248.5C186 245.5 185.5 247.5 202.5 244Z" fill="#636E5C"/>
<path id="nail4" d="M110 246.5C110 243.667 111.4 237.3 117 234.5" stroke="black" stroke-width="3"/>
<path id="nail3" d="M121.5 252C121.5 249.333 122.9 243.2 128.5 240" stroke="black" stroke-width="3"/>
<path id="nail2" d="M132.5 256.5C132.833 254 134.6 248.6 139 247" stroke="black" stroke-width="3"/>
<path id="nail1" d="M142 264.5C142.167 261.833 143.9 256.1 149.5 254.5" stroke="black" stroke-width="3"/>
<path id="scale2" d="M177.5 235C177.334 236.667 177.9 240 181.5 240" stroke="#333F2E" stroke-width="2"/>
<path id="scale" d="M188.5 231C188.833 233.333 190.8 237.6 196 236M196.5 224.5C196.833 226.167 198.8 229.2 204 228M186 224C186 225.833 187.4 229.2 193 228M194 228.5C194.333 230.833 196.5 235.3 202.5 234.5C202.333 235.667 202.8 237.9 206 237.5" stroke="#333F2E" stroke-width="2"/>
<path id="outline_2" d="M226 225.5C224 233 216.1 241.2 202.5 244C185.5 247.5 186 245.5 175.5 248.5C164.75 251.572 157.5 259 154 260C150.5 261 144 260 143 252.5M143 252.5C142.001 245 153.167 236 159.5 232M143 252.5C140.167 252.667 134.3 251.7 133.5 246.5M133.5 246.5C132.5 240 140.5 229.5 151 227M133.5 246.5C130.167 247.333 123.4 247.3 123 240.5M123 240.5C122.5 232 128.499 226 133.5 223C135.501 221.8 138.623 220.999 142 220.375M123 240.5C119.5 239.667 115.7 237.6 116.5 230C117.5 220.5 134.5 216.751 142 220.375M195.5 198C180 213 161.5 216.5 156 218C152.701 218.9 147.063 219.44 142 220.375" stroke="black" stroke-width="5"/>
</g>
<g id="body">
<path id="fill" d="M188 203.5C178.8 195.1 169.833 182.5 162 181C162 181 171.5 182.5 184 178C196.5 173.5 232.5 152 235 135C237.5 118 209 83.0002 209 83.0002C226 67.0002 233.942 74.2753 262.5 78.0002C297 82.5002 305 85.0001 361 58.5C398.449 40.7784 530.033 21.6108 555.5 23C610.5 26.0001 626.482 54.9139 648 66.5002C672.8 106.9 660 139.334 650.5 150.5C634.5 169.5 604 167.501 575.5 174C553 193.5 468 217 429 213C404 230.5 299.5 242.5 262.5 236C225.5 229.5 199.5 214 188 203.5Z" fill="#636E5A"/>
<path id="flesh" d="M539 145.5C547 164.7 537.333 186 531.5 195C488.5 208.5 457 214 428.5 214C421.7 218.4 379.667 230.167 374.5 231C372.5 233.333 362 186 362 164.5C362.001 118.167 368.334 87.6667 374.501 70C397.667 55 443 31.2999 473 48.5C510.5 70 529 121.5 539 145.5Z" fill="#BFBBA3"/>
<path id="rib4" d="M551.5 144C553.1 164 543.333 183.333 538.5 192.5L510 201.5C510 201.5 530.5 168.5 527.5 144C524.5 119.5 510 99 510 87C523.5 92 549.5 119 551.5 144Z" fill="#644543" stroke="black" stroke-width="3"/>
<path id="rib3" d="M508 154.5C509.6 174.5 499.833 195.833 495 205L466.5 210.5C466.5 210.5 487 179 484 154.5C481 130 466.5 109.5 466.5 97.5C480 102.5 506 129.5 508 154.5Z" fill="#644543" stroke="black" stroke-width="3"/>
<path id="rib2" d="M466.5 165C468.1 185 465 196 457 211.5C451 214 428.5 212.5 428.5 212.5C428.5 212.5 443.5 195.5 446 165C448.5 134.5 427 110 427 98C440.5 103 464.5 140 466.5 165Z" fill="#644543" stroke="black" stroke-width="3"/>
<path id="rib1" d="M431.5 162C433.1 182 423 208 418.5 218C406.5 223 383 227.5 383 227.5C383 227.5 408.5 192.5 411 162C413.5 131.5 392 107 392 95C405.5 100 429.5 137 431.5 162Z" fill="#644543" stroke="black" stroke-width="3"/>
<path id="scale2_2" d="M220 213C222.506 214.114 225.012 213.677 227 212.553M227 212.553C228.582 211.659 229.835 210.329 230.5 209C234 211.5 237.5 210.5 237.5 210.5M227 212.553C231.5 218 237.5 213.5 237.5 210.5M237.5 210.5C237.5 210.5 241 210 242.5 207" stroke="#414B3D" stroke-width="2"/>
<path id="scale2_3" d="M345 219C347.506 220.114 350.012 219.677 352 218.553M352 218.553C353.582 217.659 354.835 216.329 355.5 215C359 217.5 362.5 216.5 362.5 216.5M352 218.553C356.5 224 362.5 219.5 362.5 216.5M362.5 216.5C362.5 216.5 366 216 367.5 213" stroke="#414B3D" stroke-width="2"/>
<path id="scale2_4" d="M553 164C555.506 165.114 558.012 164.677 560 163.553M560 163.553C561.582 162.659 562.835 161.329 563.5 160C567 162.5 570.5 161.5 570.5 161.5M560 163.553C564.5 169 570.5 164.5 570.5 161.5M570.5 161.5C570.5 161.5 574 161 575.5 158" stroke="#414B3D" stroke-width="2"/>
<path id="scale2_5" d="M587 155C589.506 156.114 592.012 155.677 594 154.553M594 154.553C595.582 153.659 596.835 152.329 597.5 151C601 153.5 604.5 152.5 604.5 152.5M594 154.553C598.5 160 604.5 155.5 604.5 152.5M604.5 152.5C604.5 152.5 608 152 609.5 149" stroke="#414B3D" stroke-width="2"/>
<path id="scale2_6" d="M565 134C567.506 135.114 570.012 134.677 572 133.553M572 133.553C573.582 132.659 574.835 131.329 575.5 130C579 132.5 582.5 131.5 582.5 131.5M572 133.553C576.5 139 582.5 134.5 582.5 131.5M582.5 131.5C582.5 131.5 586 131 587.5 128" stroke="#414B3D" stroke-width="2"/>
<path id="scale2_7" d="M609 127C611.506 128.114 614.012 127.677 616 126.553M616 126.553C617.582 125.659 618.835 124.329 619.5 123C623 125.5 626.5 124.5 626.5 124.5M616 126.553C620.5 132 626.5 127.5 626.5 124.5M626.5 124.5C626.5 124.5 630 124 631.5 121" stroke="#414B3D" stroke-width="2"/>
<path id="scale2_8" d="M582 108C584.506 109.114 587.012 108.677 589 107.553M589 107.553C590.582 106.659 591.835 105.329 592.5 104C596 106.5 599.5 105.5 599.5 105.5M589 107.553C593.5 113 599.5 108.5 599.5 105.5M599.5 105.5C599.5 105.5 603 105 604.5 102" stroke="#414B3D" stroke-width="2"/>
<path id="scale_2" d="M256 227C258.506 228.114 261.012 227.677 263 226.553M278.5 221C277 224 273.5 224.5 273.5 224.5M263 226.553C264.582 225.659 265.835 224.329 266.5 223C270 225.5 273.5 224.5 273.5 224.5M263 226.553C267.5 232 273.5 227.5 273.5 224.5" stroke="#414B3D" stroke-width="2"/>
<path id="outline_3" d="M650.5 150.5C634.5 169.5 604 167.5 575.5 174C553 193.5 468 217 429 213C404 230.5 299.5 242.5 262.5 236C225.5 229.5 201 212.5 189.5 202C180.3 193.6 166.333 182.5 158.5 181C158.5 181 202.5 183 215 178.5C227.5 174 232.5 152 235 135C237.5 118 208.5 84 208.5 84C225.5 68 238.942 77.775 267.5 81.5C320 88.3478 360.5 57.5 400 45C439.5 32.5 530.033 21.6106 555.5 22.9998C610.5 25.9998 626.482 54.9136 648 66.5" stroke="black" stroke-width="5"/>
</g>
<g id="left-leg">
<path id="outline_4" d="M433.5 190.5C404.7 174.1 348.5 118 345.5 106.5C334 113.5 286.5 131 286.5 131C296.1 154.2 348.721 217.833 359.582 227C354.336 229.948 349.386 233.458 345.5 237.5C335.5 247.9 313 254.5 305.5 255C303.883 255.108 301.629 255.22 299 255.374C293.334 255.25 278.599 253.363 265.5 255C253.5 256.5 247.001 260.5 245.001 262.5C243.42 264.081 241 268.5 243.5 274C246.3 278.8 252.334 280 255 280C255.4 286.8 262.903 289.167 266.605 289.5C266.255 292.005 266.435 294.711 268 296.5C270.8 299.7 281.711 300.5 286.816 300.5C286.607 301.212 286.5 301.883 286.5 302.5C286.5 307.5 293.5 311 301 310.5C308.5 310 312 305 317.5 302.5C323 300 353.5 301 362 300.5C368.8 300.1 380.5 291 385.5 286.5C395.667 287.5 420.6 288 439 282C462 274.5 478.5 251 478 240.5C477.5 230 469.5 211 433.5 190.5Z" fill="#636E5C" stroke="black"/>
<path id="scale11" d="M409.5 227C409.167 228.667 409.5 231.9 413.5 231.5M403 220.5C403.5 222.667 405.8 227 411 227" stroke="#333F2E" stroke-width="2"/>
<path id="scale10" d="M410 257.5C409.5 260.333 409.9 265.7 415.5 264.5C412.5 270 418 272.5 419.5 272.5C418 274.5 415.5 279 421 280M417.5 257.5C415.667 259.833 413.5 264.8 419.5 266M423.5 267.5C421.667 270 419.6 275.1 426 275.5" stroke="#333F2E" stroke-width="2"/>
<path id="scale9" d="M371.704 210.305C374.574 210.501 379.868 209.531 378.078 204.091C383.867 206.488 385.767 200.753 385.607 199.262C387.755 200.54 392.496 202.547 392.904 196.971M370.905 202.848C373.42 204.422 378.59 206.048 379.144 199.954M380.209 195.817C382.89 197.374 388.181 198.885 387.897 192.479" stroke="#333F2E" stroke-width="2"/>
<path id="scale8" d="M378 243C377.834 245.5 379.1 249.9 385.5 247.5C384 255.5 388.5 255.5 390 255.5C388.5 264 400 265 400 265M378.5 250.5C377.834 252.5 377.8 256.2 383 255M384 258C383.5 260.833 384 266.1 390 264.5" stroke="#333F2E" stroke-width="2"/>
<path id="scale7" d="M407.199 210.198C409.7 210.342 414.088 209.035 411.631 202.657C419.644 204.085 419.603 199.585 419.59 198.085C428.103 199.509 428.999 188 428.999 188M414.694 209.63C416.7 210.278 420.4 210.278 419.153 205.089M422.144 204.062C424.982 204.537 430.243 203.989 428.589 198.004" stroke="#333F2E" stroke-width="2"/>
<path id="scale6" d="M351 269.5C350.667 271.333 353.2 275.3 358 274.5C358.833 277.5 362.4 282.4 370 278M355.5 267.5C356 269.833 358.1 273.8 362.5 271" stroke="#333F2E" stroke-width="2"/>
<path id="scale5" d="M459.104 244.935C459.812 246.658 464.085 248.631 467.695 245.368C470.015 247.444 475.662 249.646 479.687 241.841M461.814 240.823C463.493 242.518 467.402 244.725 469.596 239.993" stroke="#333F2E" stroke-width="2"/>
<path id="scale4" d="M426.815 237.323C425.587 238.338 425.058 242.326 428.636 244.448C427.528 246.868 427.16 252.035 434.551 253.346M430.858 238.495C429.899 240.296 429.087 244.045 433.505 244.639" stroke="#333F2E" stroke-width="2"/>
<path id="scale3" d="M344.5 245C343.834 247 343.8 250.9 349 250.5" stroke="#333F2E" stroke-width="2"/>
<path id="scale2_9" d="M443.311 215C442.644 217 442.611 220.9 447.811 220.5" stroke="#333F2E" stroke-width="2"/>
<path id="scale_3" d="M402.962 191.226C405.036 191.605 408.902 191.091 407.777 185.999" stroke="#333F2E" stroke-width="2"/>
<path id="outline_5" d="M374 139.5C382.167 149.667 405.7 174.1 434.5 190.5C470.5 211 478.5 230 479 240.5C479.5 251 463 274.5 440 282C421.6 288 396.667 287.5 386.5 286.5C381.5 291 369.8 300.1 363 300.5C354.5 301 324 300 318.5 302.5C313 305 309.5 310 302 310.5C294.5 311 287.5 307.5 287.5 302.5C287.5 301.883 287.607 301.212 287.816 300.5M332.5 279C327.834 278.333 316.1 278.2 306.5 283C295.981 288.259 289.304 295.44 287.816 300.5M287.816 300.5C282.711 300.5 271.8 299.7 269 296.5C267.435 294.711 267.255 292.005 267.605 289.5M300 268.5C296 267 288.358 268.986 281 273C275.5 276 270.334 281.667 269 284.5C268.486 285.676 267.881 287.525 267.605 289.5M267.605 289.5C263.903 289.167 256.4 286.8 256 280C255.98 279.662 255.965 279.329 255.955 279M431 222C420 214.5 400.5 215 391.5 216C385.298 216.689 372.211 220.465 360.582 227M255.955 279C255.712 271.063 258.438 265.781 269 260.5C275.903 257.049 290.435 255.935 300 255.374M255.955 279C252.97 279.167 246.5 278.4 244.5 274C242 268.5 244.42 264.081 246.001 262.5C248.001 260.5 254.5 256.5 266.5 255C279.599 253.363 294.334 255.25 300 255.374M300 255.374C302.629 255.22 304.883 255.108 306.5 255C314 254.5 336.5 247.9 346.5 237.5C350.386 233.458 355.336 229.948 360.582 227M360.582 227C349.721 217.833 325.6 193.7 316 170.5" stroke="black" stroke-width="5"/>
<path id="nail4_2" d="M248 274C244.667 274.333 237.4 276.6 235 283" stroke="black" stroke-width="3"/>
<path id="nail3_2" d="M279 293C275.667 293.333 267.9 297.1 265.5 303.5" stroke="black" stroke-width="3"/>
<path id="nail2_2" d="M295 303C291.667 303.333 284.4 305.6 282 312" stroke="black" stroke-width="3"/>
<path id="nail1_2" d="M261 282.5C257.667 282.833 250.4 285.1 248 291.5" stroke="black" stroke-width="3"/>
</g>
<g id="back-foot">
<path id="outline_6" d="M597.598 205C586.398 210.2 562.598 207.167 552.098 205C549.599 203.961 546.693 202.494 543.598 200.604C536.765 202.069 522.498 207.6 520.098 218C517.698 228.4 522.633 233.333 525.4 234.5C524.944 236.555 524.923 238.751 525.598 241C527.998 249 537.346 250 541.719 249.5C543.885 253.237 548.764 255.293 552.098 256C555.431 256.333 565.398 254.5 578.598 244.5C591.798 234.5 615.431 233.167 625.598 234.5C634.098 236 640.975 236.6 646.175 233C652.675 228.5 660.598 214 658.098 196C656.098 181.6 652.483 173.5 646.175 168C640.425 176.785 631.81 187.48 625.598 191.5L597.598 205Z" fill="#636E5A"/>
<path id="outline_7" d="M597.598 205C586.398 210.2 562.598 207.167 552.098 205C549.599 203.961 546.693 202.494 543.598 200.604C536.765 202.069 522.498 207.6 520.098 218C517.698 228.4 522.633 233.333 525.4 234.5M625.598 191.5C631.81 187.48 640.425 176.785 646.175 168C652.483 173.5 656.098 181.6 658.098 196C660.598 214 652.675 228.5 646.175 233C640.975 236.6 634.098 236 625.598 234.5C615.431 233.167 591.798 234.5 578.598 244.5C565.398 254.5 555.431 256.333 552.098 256C548.764 255.293 543.885 253.237 541.719 249.5M566.598 224C558.598 225.5 548.598 227.5 542.098 240C540.051 243.937 540.313 247.073 541.719 249.5M541.719 249.5C537.346 250 527.998 249 525.598 241C524.923 238.751 524.944 236.555 525.4 234.5M546.598 220C539.798 218.8 534.765 221.5 533.098 223C530.582 224.917 526.567 229.246 525.4 234.5" stroke="black" stroke-width="5"/>
<path id="nail3_3" d="M520.5 248.5C522.333 246.167 527 241.6 531 242" stroke="black" stroke-width="3"/>
<path id="nail2_3" d="M540.5 257.5C542 254.667 546.4 248.9 552 248.5" stroke="black" stroke-width="3"/>
<path id="nail1_3" d="M510 235C511.833 232.667 517 227.6 523 226" stroke="black" stroke-width="3"/>
</g>
<g id="tail">
<path id="fill_2" d="M636.5 218.12C663.7 180.52 658.5 154.787 652.5 148.62L650 64.6201C666 73.2355 720 101.12 733.5 140.62C747 180.12 750 234.12 729.5 260.62C709 287.12 671.517 312.998 640.5 322.12C615 329.62 603.5 334.62 551 332.62C498.5 330.62 469.5 342.62 439.5 353.62C415.5 362.42 380.167 400.62 365.5 418.62C367.5 403.12 372.5 382.12 382.5 367.62C396.775 346.921 412.5 326.62 454.5 310.12C486 297.745 525.5 295.62 551 284.62C566.144 278.088 602.5 265.12 636.5 218.12Z" fill="#636E5A"/>
<path id="Vector 56" d="M451 328.5C453.333 329.333 458.9 330 462.5 326" stroke="#333F2E"/>
<path id="Vector 57" d="M489 321.5C490.5 323 494.2 325.1 497 321.5" stroke="#333F2E"/>
<path id="Vector 58" d="M467.5 332.5C468.333 333.667 471 335.3 475 332.5" stroke="#333F2E"/>
<path id="Vector 59" d="M402 359.5C404 360.833 409.1 362.3 413.5 357.5" stroke="#333F2E"/>
<path id="Vector" d="M530 314.5C531 316 533.9 318.1 537.5 314.5M550.5 317.5C547.5 319.833 540.9 323.1 538.5 317.5M534 313.5C535.5 315.333 539.6 317.9 544 313.5M544.5 312.5C546 315.167 550.6 319.4 557 315M526 312.5C527.667 313.5 531.7 314.9 534.5 312.5" stroke="#333F2E"/>
<path id="Vector_2" d="M624 317C626 318.5 630.5 320.6 632.5 317M639 314.5C638.333 316.167 636.2 319 633 317M629.5 312.5C631 314.167 634.9 316.5 638.5 312.5C641.7 315.3 646.167 311.333 648 309M619 315.5C621.5 316.167 627.1 316.3 629.5 311.5M634 307.5C635.333 308.667 639.2 309.6 644 304" stroke="#333F2E"/>
<path id="Vector 45" d="M666.5 286.5C669.333 288.5 675.4 291.3 677 286.5" stroke="#333F2E"/>
<path id="Vector_3" d="M587.5 293.5C589.333 295.5 593.4 298.3 595 293.5M576 292.5C577.667 295.167 581.9 299.4 585.5 295M569.5 290C569.667 292.5 571 296.5 575 292.5M583.5 289C585 291.333 589.1 294.6 593.5 289M575.5 287C575.833 289.667 578 293.4 584 287" stroke="#333F2E"/>
<path id="Vector_4" d="M643 252.5C644.667 253.333 648.4 253.5 650 247.5M633.5 256.5C635.333 258 639.6 259.7 642 254.5M626.5 260.5C628 261 631.5 260.8 633.5 256M636 250.5C638.167 251.833 642.7 252.8 643.5 246M626 253.5C628.333 254.5 633.3 255.4 634.5 251" stroke="#333F2E"/>
<path id="Vector_5" d="M691 252.5C692.667 254 696.7 255.5 699.5 249.5M685.5 256C685.833 257.5 687.2 259.6 690 256M680.5 254C681.667 254.833 684.4 255.6 686 252M685 250C687.333 251 692.3 251.8 693.5 247M703 244C700.833 246 696 249.4 694 247" stroke="#333F2E"/>
<path id="Vector_6" d="M654.5 230.5C655.5 231 658 231.1 660 227.5M657.5 226C659 226.5 662.6 226.6 665 223" stroke="#333F2E"/>
<path id="Vector_7" d="M722.5 216.5C725.333 217.167 731.5 216.6 733.5 209M709 224C711.5 224.5 717.1 224.2 719.5 219" stroke="#333F2E"/>
<path id="Vector 25" d="M668.5 211.5C670.167 212.333 674.1 212.7 676.5 207.5" stroke="#333F2E"/>
<path id="Vector_8" d="M697 192C699.833 193.667 706 195.4 708 189M697 199C698.333 200.333 701.1 201.6 701.5 196M689 195.5C691 197.5 695.5 200.3 697.5 195.5M702.5 186.5C705.833 187.667 712.3 187.9 711.5 179.5M693 191.5C695.5 192 700.7 191.7 701.5 186.5M685.5 193C686.833 193.667 690 194 692 190" stroke="#333F2E"/>
<path id="Vector_9" d="M669 186.5C670.333 188.167 673.4 190.5 675 186.5M659 185C660.167 186.333 663.1 188.2 665.5 185M672.5 180.5C674 182.333 677.7 184.9 680.5 180.5M658 179.5C659.833 181.833 664.1 185.6 666.5 182M667 182.5C668.167 184.167 671 186.5 673 182.5" stroke="#333F2E"/>
<path id="Vector_10" d="M720.5 148.5C723 149.5 728.2 150.5 729 146.5M708 152.5C711 154.167 717.1 155.9 717.5 149.5" stroke="#333F2E"/>
<path id="Vector_11" d="M674.5 154.5C677.833 155.167 684.8 154.6 686 147M665.5 158C667.167 159 671.3 159.5 674.5 153.5M660.5 162C661.167 162.833 663 163.2 665 158M661 154C662.333 154.5 665.5 154.4 667.5 150M678.5 144.5C677.333 148.167 673.7 154.4 668.5 150M664 146C665.667 146.5 669.4 146.5 671 142.5" stroke="#333F2E"/>
<path id="Vector_12" d="M691.5 129C693 129.333 696.7 129.3 699.5 126.5M708.5 123C707.5 125.167 704.4 129.1 700 127.5" stroke="#333F2E"/>
<path id="Vector_13" d="M680 117.5C682 118.333 686.8 119.1 690 115.5M669.5 120.5C671.167 121.667 675.1 123.3 677.5 120.5M663 119.5C663.833 119.833 666 119.7 668 116.5M679 110.5C678.5 113.167 676.1 117.9 670.5 115.5" stroke="#333F2E"/>
<path id="outline_8" d="M652.5 148.62C658.5 154.787 663.7 180.52 636.5 218.12C602.5 265.12 566.144 278.088 551 284.62C525.5 295.62 486 297.745 454.5 310.12C412.5 326.62 396.775 346.921 382.5 367.62C372.5 382.12 367.5 403.12 365.5 418.62C380.167 400.62 415.5 362.42 439.5 353.62C469.5 342.62 498.5 330.62 551 332.62C603.5 334.62 615 329.62 640.5 322.12C671.517 312.998 709 287.12 729.5 260.62C750 234.12 747 180.12 733.5 140.62C720 101.12 662 73.1154 646 64.5" stroke="black" stroke-width="5"/>
</g>
<g id="back-leg">
<path id="fill_3" d="M511 142C513 106.4 533.5 89.5 543.5 85.5L557 22C569.833 22.5 598.081 29.9195 618 42.5C637 54.5 652 73.5 657.5 92.5C663 111.5 656 151 652 159.5C650.923 161.788 649.194 164.764 647.077 168C641.327 176.785 632.712 187.48 626.5 191.5L598.5 205C587.3 210.2 563.5 207.167 553 205C550.501 203.961 547.595 202.494 544.5 200.604C529.224 191.271 509.337 171.602 511 142Z" fill="#636E5A"/>
<path id="back-leg-scale15" d="M547 199.5C548.5 200.667 552.2 202 555 198" stroke="#333F2E" stroke-width="2"/>
<path id="back-leg-scale14" d="M601 184.5C603.5 185.667 608.9 186.9 610.5 182.5M604 188.5C605 190.5 608.1 193.3 612.5 188.5M583.5 191.5C584.833 193 588.3 194.6 591.5 189M595 190.5C597 191.5 601.6 192.3 604 187.5" stroke="#333F2E" stroke-width="2"/>
<path id="back-leg-scale13" d="M572.5 196C573.667 198 576.7 200.8 579.5 196" stroke="#333F2E" stroke-width="2"/>
<path id="back-leg-scale12" d="M626 165.5C629 166.833 635.7 167.7 638.5 160.5M617 170C618.333 171.167 622 171.8 626 165" stroke="#333F2E" stroke-width="2"/>
<path id="back-leg-scale11" d="M643 148.5C644.667 149.5 648.6 150.5 651 146.5M633.5 153C635.5 154 640 154.9 642 150.5M627 155.5C628.167 156.167 631 156.6 633 153M638 148C639.333 148.333 642.7 148.3 645.5 145.5M627 148.5C628.833 149.667 633 151.3 635 148.5" stroke="#333F2E" stroke-width="2"/>
<path id="back-leg-scale10" d="M629.5 84C632.333 84.6667 637.6 84.1 636 76.5" stroke="#333F2E" stroke-width="2"/>
<path id="back-leg-scale9" d="M533.5 150C535.5 151.667 540.3 153.5 543.5 147.5" stroke="#333F2E" stroke-width="2"/>
<path id="back-leg-scale8" d="M567.5 177C569.833 179.5 575.1 183 577.5 177M560.5 182.5C562 183.333 565.4 184 567 180M562 177C564.333 178 569.3 178.6 570.5 173M552 178C554.333 179.333 559.4 180.9 561 176.5M544.5 178.5C546 179.667 549.6 180.9 552 176.5M564.5 170.5C567 171.833 572.5 173 574.5 167M555.5 173C557.167 175.167 561 177.8 563 171M548 174C549 175.5 551.8 177.6 555 174M571 171.5C573.333 173.667 578.3 176.1 579.5 168.5" stroke="#333F2E" stroke-width="2"/>
<path id="back-leg-scale7" d="M633.5 132C636.5 132.667 642.1 132.2 640.5 125M622 136.5C623.5 137.333 627 137.8 629 133M643.5 116.5C645.1 124.5 639.167 125.167 636 124.5C636.4 131.3 630.167 133 627 133M619.5 132C621.5 132.333 625.7 131.4 626.5 125" stroke="#333F2E" stroke-width="2"/>
<path id="back-leg-scale6" d="M553 146.5C555.167 147.333 559.5 147.3 559.5 140.5M550.5 153C552.833 153.333 557.8 152.6 559 147M571.5 138.5C571.167 142.5 568.4 149.6 560 146" stroke="#333F2E" stroke-width="2"/>
<path id="back-leg-scale5" d="M592.5 116C594.667 117.5 599.3 118.7 600.5 111.5C603.5 113.5 610 114.5 611 107.5M594.5 107.5C596.667 109.167 601.7 111.1 604.5 105.5M603.5 107C605.597 107.655 609.159 107.713 610 104.204M610 104.204C610.228 103.252 610.256 102.037 610 100.5M610 104.204C615.333 105.136 624.2 104.9 617 96.5" stroke="#333F2E" stroke-width="2"/>
<path id="back-leg-scale4" d="M539 113C542 114.667 548.3 116.1 549.5 108.5M531 120C532.833 120.833 536.6 120.7 537 113.5" stroke="#333F2E" stroke-width="2"/>
<path id="back-leg-scale3" d="M571.5 87.5C574.167 87.8333 579 86.8 577 80M564 95C565.333 95.5 568.2 95.2 569 90" stroke="#333F2E" stroke-width="2"/>
<path id="back-leg-scale2" d="M624 68C624.833 68.3333 626.6 68 627 64M625 62C626.5 61.6667 629.3 59.9 628.5 55.5" stroke="#333F2E" stroke-width="2"/>
<path id="back-leg-scale" d="M582.5 68.5C584.833 68.6667 588.8 67.7 586 62.5M581.5 52C583.5 55.3333 585.7 61.5 578.5 59.5M572 71C574 71.1667 578.1 70.2 578.5 65" stroke="#333F2E" stroke-width="2"/>
<path id="outline_9" d="M543.5 85.5C533.5 89.5 513 106.4 511 142C509.337 171.602 529.224 191.271 544.5 200.604C547.595 202.494 550.501 203.961 553 205C563.5 207.167 587.3 210.2 598.5 205M557 22C569.833 22.5 598.081 29.9195 618 42.5C637 54.5 652 73.5 657.5 92.5C663 111.5 656 151 652 159.5C650.923 161.788 649.194 164.764 647.077 168C641.327 176.785 632.712 187.48 626.5 191.5" stroke="black" stroke-width="5"/>
</g>
<g id="bottom-head">
<path id="mouth-fill" d="M199.629 103.504C211.872 106.308 224.496 129.348 229.277 140.517C221.653 134.507 212.542 135.915 201.141 141.683C141.037 164.31 146.353 159.647 111.567 162.884C76.7818 166.121 62.9978 154.698 56.2737 150.249C50.8945 146.691 44.1062 137.094 41.3844 132.741C50.0109 133.639 70.6696 135.457 84.2928 135.546C101.322 135.658 133.929 119.751 145.33 113.983C156.73 108.215 184.325 99.9976 199.629 103.504Z" fill="#857F6C"/>
<path id="mouth-fill2" d="M172.24 116.243C160.396 113.465 142.419 117.634 135.892 120.381L153.107 109.982C167.603 105.418 198.014 99.0883 205.952 106.422C213.891 113.755 224.087 130.49 227.911 138.423C220.557 135.938 214.538 136.045 205.459 136.955C196.38 137.865 187.044 119.717 172.24 116.243Z" fill="#6C6451"/>
<path id="bottom-jaw-fill" d="M37.3697 140.495C35.4027 133.986 39.519 130.614 41.9157 132.274C47.3806 140.649 47.8469 141.18 60.633 152.539C79.2433 166.784 118.552 163.341 137.74 161.088C156.928 158.835 205.361 138.452 215.503 136.61C223.616 135.136 236.001 137.364 238 140C246.423 146.564 255.383 164.271 249.273 171.888C241.635 181.41 221.025 190.084 214.073 189.128C206.285 185.613 199.398 183.659 187.424 182.876C174.582 180.032 96.3571 180.93 80.6848 175.396C65.0125 169.861 39.0812 152.633 37.3697 140.495Z" fill="#BFBAA4"/>
<path id="bottom-jaw-shade" d="M216.092 181.243C222.235 179.239 232.84 170.312 235.661 165.486C238.482 160.66 245.5 149.5 245.5 149.5L258.5 155.5C258.5 155.5 254.5 162.5 253 165.486C251.5 168.472 246.641 175.852 240.768 179.349C232.426 184.315 227.74 187.015 220.624 188.554C213.509 190.093 208.118 188.237 200.233 186.219C192.348 184.2 150.004 180.429 132.975 180.318C119.281 180.228 91.0646 177.577 81.1833 175.428C71.3021 173.279 51.7273 158.47 64.8396 164.839C77.952 171.208 103.701 175.898 122.292 175.11C140.883 174.321 152.391 174.572 168.357 175.616C184.323 176.66 209.948 183.246 216.092 181.243Z" fill="#A09477"/>
<path id="bottom-jaw" d="M173.749 100.809C153.54 111.012 109.385 131.876 94.4337 133.704C79.4825 135.532 48.3033 134.195 42.5445 130.311M42.5445 130.311C41.4824 129.595 41.1011 129.884 41.3554 130.887M42.5445 130.311C42.143 130.48 41.7448 130.672 41.3554 130.887M41.3554 130.887C42.4802 135.319 56.0376 153.695 78.1377 160.698C93.6404 163.716 133.794 166.242 170.389 152.199C216.132 134.646 218.822 131.816 232.14 142.708M41.3554 130.887C34.081 134.897 29.8654 146.915 64.6437 167.833C69.582 171.496 85.8645 178.941 111.488 179.414C143.518 180.005 203.553 181.425 214.539 189.66" stroke="black" stroke-width="5"/>
<path id="bottom-tooth7" d="M108.777 113.597C104.897 117.753 108.004 125.405 110.791 128.761L120.034 125.357C120.034 125.357 119.516 110.291 115.99 110.561C112.465 110.832 110.54 111.708 108.777 113.597Z" fill="white" stroke="black" stroke-width="3"/>
<path id="bottom-tooth7_2" d="M115.991 110.561C115.198 115.019 116.786 121.482 119.573 124.838L128.815 121.433C128.815 121.433 128.31 110.377 124.635 108.621C122.206 107.46 117.754 108.673 115.991 110.561Z" fill="white" stroke="black" stroke-width="3"/>
<path id="bottom-tooth7_3" d="M125.698 107.688C125.47 111.181 127.052 117.631 129.839 120.987L138.582 117.55C138.582 117.55 138.517 107.533 134.842 105.777C132.413 104.617 127.462 105.799 125.698 107.688Z" fill="white" stroke="black" stroke-width="3"/>
<path id="bottom-tooth7_4" d="M135.407 104.816C134.68 108.276 136.327 113.728 139.114 117.084L148.921 112.715C148.921 112.715 147.727 104.632 144.052 102.876C141.622 101.715 137.171 102.927 135.407 104.816Z" fill="white" stroke="black" stroke-width="3"/>
<path id="bottom-tooth6" d="M195.373 130.283C193.579 132.17 195.497 142.71 195.497 142.71L204.739 139.306C204.739 139.306 203.822 131.336 202.423 129.742C201.024 128.147 197.167 128.396 195.373 130.283Z" fill="white" stroke="black" stroke-width="3"/>
<path id="bottom-tooth5" d="M185.264 131.626C183.47 133.513 186.255 146.114 186.255 146.114L195.497 142.71C195.497 142.71 195.774 131.812 193.344 130.651C190.915 129.49 187.058 129.739 185.264 131.626Z" fill="white" stroke="black" stroke-width="3"/>
<path id="bottom-tooth4" d="M176.087 134.032C174.293 135.919 177.014 149.519 177.014 149.519L186.256 146.114C186.256 146.114 186.63 133.72 184.201 132.559C181.771 131.398 177.881 132.146 176.087 134.032Z" fill="white" stroke="black" stroke-width="3"/>
<path id="bottom-tooth3" d="M165.978 135.376C164.184 137.263 166.864 152.47 166.864 152.47L178.666 148.231C178.666 148.231 177.518 135.129 175.089 133.968C172.66 132.806 167.772 133.489 165.978 135.376Z" fill="white" stroke="black" stroke-width="3"/>
<path id="bottom-tooth2" d="M154.274 138.118C152.48 140.005 154.564 156.676 154.564 156.676L167.83 153.034C167.83 153.034 167.377 136.971 164.948 135.809C162.518 134.648 156.067 136.231 154.274 138.118Z" fill="white" stroke="black" stroke-width="3"/>
<path id="bottom-tooth1" d="M141.04 141.261C138.35 144.092 142.328 159.885 142.328 159.885L155.095 156.21C155.095 156.21 155.108 140.678 153.178 139.55C151.248 138.421 143.731 138.431 141.04 141.261Z" fill="white" stroke="black" stroke-width="3"/>
<path id="bottom-fang9" d="M87.2304 116.197C79.9518 120.231 78.3806 131.485 80.535 134.299C80.535 134.299 90.8441 134.973 99.0228 132.501C96.7239 129.344 91.6597 122.499 87.2304 116.197Z" fill="white" stroke="black" stroke-width="3"/>
<path id="bottom-fang8" d="M71.5292 116.172C64.2507 120.206 62.6794 131.461 64.8338 134.274C64.8338 134.274 74.3125 134.894 80.3658 134.288C78.1326 130.133 74.3693 126.379 71.5292 116.172Z" fill="white" stroke="black" stroke-width="3"/>
<path id="bottom-fang7" d="M56.5614 115.194C49.2828 119.227 48.7423 130.049 50.8967 132.862C50.8967 132.862 58.316 134.349 63.3374 134.176C61.1042 130.022 59.0657 122.873 56.5614 115.194Z" fill="white" stroke="black" stroke-width="3"/>
<path id="bottom-fang6" d="M41.4623 116.21C36.2124 119.876 37.2989 128.799 39.4533 131.612C39.4533 131.612 44.4109 132.437 49.4323 132.265C47.1991 128.11 43.067 122.328 41.4623 116.21Z" fill="white" stroke="black" stroke-width="3"/>
<path id="bottom-fang5" d="M110.345 143.263C103.532 147.828 100.851 158.175 100.059 162.633C104.05 162.894 119.051 163.373 123.639 162.17C122.935 157.615 114.714 153.069 110.345 143.263Z" fill="white" stroke="black" stroke-width="3"/>
<path id="bottom-fang4" d="M96.3744 142.349C88.662 145.352 84.4518 156.1 83.6592 160.558C86.0234 162.717 96.501 163.402 106.046 163.024C105.342 158.468 97.7503 151.959 96.3744 142.349Z" fill="white" stroke="black" stroke-width="3"/>
<path id="bottom-fang3" d="M80.5718 138.811C73.708 139.564 66.8166 149.937 66.024 154.395C68.3882 156.553 78.5396 162.228 88.0846 161.85C87.3803 157.294 79.9193 148.789 80.5718 138.811Z" fill="white" stroke="black" stroke-width="3"/>
<path id="bottom-fang2" d="M66.3637 133.873C59.4999 134.627 52.1063 142.461 51.6432 144.435C51.6432 144.435 61.0999 153.07 66.9566 155.458C66.2524 150.902 63.7481 143.222 66.3637 133.873Z" fill="white" stroke="black" stroke-width="3"/>
<path id="bottom-fang1" d="M52.3513 125.942C45.4875 126.695 42.8453 130.832 42.3822 132.806C42.3822 132.806 46.318 141.581 52.1748 143.969C51.4705 139.413 49.7358 135.291 52.3513 125.942Z" fill="white" stroke="black" stroke-width="3"/>
</g>
<g id="top-head">
<path id="tooth6" d="M184.593 137.562C184.593 137.562 181.566 131.81 179.004 126.943C181.146 122.425 190.368 124.917 190.368 124.917C190.368 124.917 193.861 131.554 192.581 134.488C191.043 135.862 189.064 137.469 184.593 137.562Z" fill="white" stroke="black" stroke-width="3"/>
<path id="tooth5" d="M176.14 139.751L171.016 130.017L178.538 126.058L184.127 136.677C184.127 136.677 180.811 140.682 176.14 139.751Z" fill="white" stroke="black" stroke-width="3"/>
<path id="tooth4" d="M166.616 144.199L160.561 132.695L171.226 129.342L176.815 139.961C176.815 139.961 171.287 145.13 166.616 144.199Z" fill="white" stroke="black" stroke-width="3"/>
<path id="tooth3" d="M157.58 150.65L150.361 136.934L160.794 133.138L167.314 145.527C167.314 145.527 162.252 151.581 157.58 150.65Z" fill="white" stroke="black" stroke-width="3"/>
<path id="tooth2" d="M146.672 155.261L138.521 139.775L149.187 136.421L156.406 150.137C156.406 150.137 151.344 156.192 146.672 155.261Z" fill="white" stroke="black" stroke-width="3"/>
<path id="tooth1" d="M135.341 156.705C130.856 153.981 127.656 142.104 127.656 142.104L139.253 140.52L146.938 155.121C146.938 155.121 139.826 159.43 135.341 156.705Z" fill="white" stroke="black" stroke-width="3"/>
<path id="fang6" d="M109.842 156.566C99.9674 154.983 97.3702 141.847 96.7335 136.344C103.623 137.237 107.21 137.61 113.264 138.378C108.91 144.061 109.399 146.063 109.842 156.566Z" fill="white" stroke="black" stroke-width="3"/>
<path id="fang5" d="M92.3997 156.706C82.6885 152.212 83.6269 140.041 82.9903 134.537C89.4873 135.073 92.3983 135.235 98.2205 135.561C93.8656 141.244 91.4911 145.319 92.3997 156.706Z" fill="white" stroke="black" stroke-width="3"/>
<path id="fang4" d="M74.7006 155.286C64.4354 152.101 61.5042 140.949 60.8676 135.445C67.3412 134.863 71.5793 134.328 77.4015 134.653C73.0702 141.453 71.324 143.502 74.7006 155.286Z" fill="white" stroke="black" stroke-width="3"/>
<path id="fang3" d="M57.1185 159.455C46.8533 156.27 43.0138 144.466 42.3771 138.963L61.3334 136.331C57.0021 143.131 53.742 147.672 57.1185 159.455Z" fill="white" stroke="black" stroke-width="3"/>
<path id="fang2" d="M44.4507 163.297C34.4092 162.254 29.1041 149.527 27.7067 143.294L43.495 138.939C40.9568 145.925 37.9529 152.027 44.4507 163.297Z" fill="white" stroke="black" stroke-width="3"/>
<path id="fang1" d="M27.8931 162.972C13.0263 153.621 13.9358 144.327 16.2489 140.85C19.6959 145.251 28.615 143.946 32.8299 142.293C30.0356 147.719 28.8947 157.36 27.8931 162.972Z" fill="white" stroke="black" stroke-width="3"/>
<path id="top-jaw-fill" d="M13.3383 140.686C8.68066 131.837 20.1455 120.341 27.8224 116.677C39.1121 111.288 80.149 116.256 98.5925 110.504C115.204 99.1237 152.763 76.2283 170.107 75.6876C191.787 75.0118 219.406 80.2508 233.542 103.887C244.851 122.796 255.379 146.448 259.229 155.91L232.798 143.266C216.334 136.676 198.379 122.96 180.983 125.336C169.973 129.323 130.217 146.971 115.989 140.335C95.2909 134.504 63.4986 132.931 40.1653 140.127C29.4706 143.425 17.5302 148.65 13.3383 140.686Z" fill="#BFBAA4"/>
<path id="top-jaw-shade2" d="M229.6 110.353C224.553 101.838 211.234 87.6247 205.776 83.34C204.457 80.8327 205.669 78.1981 221.076 87.7176C236.483 97.2371 258.975 151.388 257.74 156.557L247 154.5C247 154.5 234.647 118.867 229.6 110.353Z" fill="#A09477"/>
<path id="top-jaw-shade" d="M39.8154 134.096C27.2217 139.368 16.163 136.751 12.9881 134.656C12.2429 134.671 11.4745 137.147 15.1543 141.991C20.0317 148.41 30.4075 144.133 46.1729 138.66C61.9383 133.187 85.0161 135.166 95.0995 136.074C105.183 136.982 121.204 143.805 135.457 140.824C145.999 138.618 178.258 123.38 187.899 124.521C195.612 125.434 216.217 134.666 225.555 139.168C226.657 138.4 217.526 133.789 213.539 131.367C208.556 128.34 200.265 127.618 190.112 123.357C181.989 119.948 171.668 125.531 166.708 127.2C162.579 129.373 148.199 134.117 133.594 137.284C118.988 140.451 108.016 133.419 100.828 131.929C85.7379 130.454 52.409 128.823 39.8154 134.096Z" fill="#9F927A"/>
<path id="eye-shade2" d="M180.191 108.802C176.763 107.442 176.294 104.261 176.279 103.516C177.918 104.913 183.994 105.294 186.828 105.309L186.269 110.689C185.671 110.626 183.619 110.162 180.191 108.802Z" fill="#9F927A"/>
<path id="eye-shade" d="M211.07 98.7644C205.444 94.9454 201.864 97.0181 200.777 98.5318C206.534 100.022 209.308 107.226 209.976 110.641L217.707 106.007C217.839 105.184 216.696 102.583 211.07 98.7644Z" fill="#525145"/>
<path id="eye-fill" d="M207.134 103.096C204.731 99.3887 201.01 98.9743 199.45 99.2305L187.038 104.633C185.966 106.892 186.013 109.128 187.876 112.668C193.791 117.465 201.779 114.391 209.3 110.431C209.58 109.531 209.538 106.803 207.134 103.096Z" fill="#F7FB76" stroke="black" stroke-width="2"/>
<path id="eye-line" d="M176.279 103.516C178.165 104.595 182.869 106.376 186.595 104.867M186.595 104.867C190.321 103.357 199.217 98.7882 203.199 96.6923C206.327 96.5525 213.562 98.1312 217.474 105.564C214.4 108.312 205.551 112.97 197.098 115.159C192.937 115.842 185.012 114.74 186.595 104.867Z" stroke="black" stroke-width="2"/>
<path id="eye-slit" d="M192.673 106.752C191.974 105.425 191.252 102.98 191.252 102.98L189.482 103.912C189.482 103.912 191.136 108.127 192.277 109.221C193.418 110.316 194.979 110.059 194.979 110.059C194.979 110.059 193.372 108.08 192.673 106.752Z" fill="black"/>
<path id="crown-fill" d="M14.6887 130.37C18.5311 121.568 21.9153 119.409 29.5923 115.745C40.882 110.357 81.9189 115.325 100.362 109.572C116.974 98.1923 154.572 73.4715 171.877 74.7562C181.285 75.4547 189.687 75.5528 197.004 78.4816C183.404 80.5545 170.946 83.7219 160.327 89.3111C147.961 96.9496 132.965 107.103 113.939 117.117C100.991 118.282 97.1955 118.585 76.8424 118.562C66.6658 118.551 35.3442 112.718 14.6887 130.37Z" fill="#F8F4EA"/>
<path id="crown-shade" d="M147.984 87.3319C146.168 86.0276 103.273 109.735 106.417 110.341C109.561 110.946 122.439 106.428 130.403 102.236C138.367 98.0443 149.8 88.6361 147.984 87.3319Z" fill="#BCB7A2"/>
<path id="crown-line2" d="M203.292 79.6925C188.481 77.3175 166.498 84.9331 151.71 94.4113C137.371 103.602 122.392 114.928 113.008 115.348" stroke="black" stroke-width="2"/>
<path id="crown-line1" d="M68.6914 113.812C79.2872 117.84 90.5024 117.248 102.295 116.465" stroke="black" stroke-width="2"/>
<path id="top-jaw" d="M232.798 143.266C216.334 136.676 198.379 122.96 180.983 125.336C169.973 129.323 130.217 146.971 115.989 140.335C95.2909 134.504 63.4986 132.931 40.1653 140.127C29.4706 143.425 17.5302 148.65 13.3383 140.686C8.68066 131.837 20.1455 120.341 27.8224 116.677C39.1121 111.288 80.149 116.256 98.5925 110.504C115.204 99.1237 152.763 76.2283 170.107 75.6876C191.787 75.0118 219.406 80.2508 233.542 103.887C244.851 122.796 255.379 146.448 259.229 155.91" stroke="black" stroke-width="5"/>
</g>
<g id="hair">
<path id="fill" d="M209.352 83.0469C214.245 77.4191 218.899 74.7102 225.583 74.2958C233.937 73.7778 253.151 77.5309 261.478 78.363C270.444 79.2591 307.625 83.4998 345.469 63.4742C370.337 50.3148 421.164 33.1255 446.51 27.6814C471.857 22.2374 498.72 15.8805 514.763 21.0294C528.668 25.492 543.783 41.0128 548.305 54.7701L548.381 55.0027C550.154 60.3875 554.613 73.9311 547.175 87.2722C536.893 65.1589 533.924 59.5343 516.288 45.6221C522.899 59.2498 532.88 113.717 507.795 128.439C511.475 94.8103 493.122 69.325 479.903 59.0112C486.946 71.1603 494.233 105.851 472.467 133.533C469.615 112.895 461.422 90.6529 447.784 73.5884C454.574 90.1095 460.445 130.697 439.693 154.444C437.421 117.796 425.842 100.12 401.82 84.6673C413.325 98.3144 437.767 137.621 415.497 169.982C413.959 145.175 405.577 127.9 398.997 114.338L398.784 113.899C402.471 131.097 406.275 156.516 399.043 183.587C387.252 145.594 379.595 115.089 360.034 95.4872C373.449 117.406 389.895 162.856 362.122 205.239C361.087 163.19 357.788 152.261 337.942 119.608C349.419 149.715 361.661 223.178 318.506 262.642C325.947 238.946 331.45 217.79 330.134 196.573C327.028 211.287 316.621 247.463 299.366 266.733C306.063 232.521 314.301 199.241 313.043 164.985C313.89 192.699 307.304 226.807 278.613 261.727C281.203 218.969 271.637 191.487 267.697 178.662C267.476 200.458 259.022 241.643 234.096 270.78C240.894 228.245 251.715 149.157 238.97 112.675C233.751 97.7374 214.813 86.581 209.352 83.0469Z" fill="#444442"/>
<path id="shade" d="M225.583 74.2962C218.899 74.7106 214.245 77.4195 209.352 83.0473C209.432 84.3332 210.403 86.4674 213.649 84.7172C216.895 82.9669 225.807 80.7362 232.327 81.6228C238.847 82.5094 252.948 84.5072 263.463 85.017C276.607 85.6542 299.641 85.1941 321.855 79.9444C339.626 75.7446 352.004 67.4261 363.745 62.3414C375.485 57.2568 392.657 55.224 405.501 51.0392C418.346 46.8544 434.756 40.9963 449.197 37.1966L450.241 36.9218C464.43 33.1866 480.526 28.9497 496.294 27.4996C512.451 26.0137 526.729 28.0329 526.729 28.0329C526.729 28.0329 525.013 25.7189 514.763 21.0298C504.513 16.3406 471.857 22.2378 446.51 27.6818C421.164 33.1259 370.337 50.3152 345.469 63.4745C307.625 83.5002 270.444 79.2594 261.478 78.3634C253.151 77.5313 233.937 73.7782 225.583 74.2962Z" fill="#6C6F69"/>
<path id="outline" d="M313.043 164.985C314.301 199.241 306.063 232.521 299.366 266.733C316.621 247.463 327.028 211.287 330.134 196.573C331.45 217.79 325.947 238.946 318.506 262.642C361.661 223.178 349.419 149.715 337.942 119.608C357.788 152.261 361.087 163.19 362.122 205.239C389.895 162.856 373.449 117.406 360.034 95.4872C379.595 115.089 387.252 145.594 399.043 183.587C406.275 156.516 402.471 131.097 398.784 113.899L398.997 114.338C405.577 127.9 413.959 145.175 415.497 169.982C437.767 137.621 413.325 98.3144 401.82 84.6673C425.842 100.12 437.421 117.796 439.693 154.444C460.445 130.697 454.574 90.1095 447.784 73.5884C461.422 90.6529 469.615 112.895 472.467 133.533C494.233 105.851 486.946 71.1603 479.903 59.0112C493.122 69.325 511.475 94.8103 507.795 128.439C532.88 113.717 522.899 59.2498 516.288 45.6221C533.924 59.5343 536.893 65.1589 547.175 87.2722C554.613 73.9311 550.154 60.3875 548.381 55.0027L548.305 54.7701C543.783 41.0128 528.668 25.492 514.763 21.0294C498.72 15.8805 471.857 22.2374 446.51 27.6814C421.164 33.1255 370.337 50.3148 345.469 63.4742C307.625 83.4998 270.444 79.2591 261.478 78.363C253.151 77.5309 233.937 73.7778 225.583 74.2958C218.899 74.7102 214.245 77.4191 209.352 83.0469C214.813 86.581 233.751 97.7374 238.97 112.675C251.715 149.157 240.894 228.245 234.096 270.78C259.022 241.643 267.476 200.458 267.697 178.662C271.637 191.487 281.203 218.969 278.613 261.727C307.304 226.807 313.89 192.699 313.043 164.985ZM313.043 164.985C312.806 158.518 312.23 152.016 311.241 145.466C312.154 151.514 312.831 158.049 313.043 164.985Z" stroke="black" stroke-width="5"/>
<path id="gray-strand2" d="M312.175 101.358C317.413 109.746 331.472 150.504 332.04 159.666" stroke="#747472" stroke-width="3"/>
<path id="gray-strand2_2" d="M321.871 88.6553C331.718 95.3056 338.448 110.862 343.373 122.658" stroke="#747472" stroke-width="3"/>
<path id="gray-strand2_3" d="M349.975 68.519C359.882 76.1338 368.312 85.2923 374.953 99.4023" stroke="#747472" stroke-width="3"/>
<path id="gray-strand2_4" d="M369.578 63.4307C381.62 70.9822 396.863 97.6977 397.512 108.168" stroke="#747472" stroke-width="3"/>
<path id="gray-strand2_5" d="M440.842 37.7139C453.3 44.2023 468.893 67.4385 469.462 76.6004" stroke="#747472" stroke-width="3"/>
<path id="gray-strand2_6" d="M460.042 34.5874C468.293 40.8527 471.755 45.9627 477.022 54.8332" stroke="#747472" stroke-width="3"/>
<path id="gray-strand2_7" d="M502.56 27.1108C515.018 33.5993 525.447 41.1817 534.31 48.8612" stroke="#747472" stroke-width="3"/>
<path id="gray-strand" d="M269.06 99.1914C277.819 113.654 285.672 140.565 284.195 157.308" stroke="#747472" stroke-width="3"/>
<path id="black-strand8" d="M491.537 43.7681C503.31 56.1078 511.601 74.8592 511.818 91.8847" stroke="black" stroke-width="3"/>
<path id="black-strand7" d="M433.532 38.1675C452.794 52.9472 467.551 72.8467 466.36 94.2192" stroke="black" stroke-width="3"/>
<path id="black-strand6" d="M397.595 58.79C414.559 70.3238 433.474 98.0978 435.838 109.181" stroke="black" stroke-width="3"/>
<path id="black-strand5" d="M367.133 74.7158C379.667 90.8808 386.79 121.225 387.819 137.813" stroke="black" stroke-width="3"/>
<path id="black-strand4" d="M285.933 109.278C298.736 129.783 303.442 158.341 301.786 178.968" stroke="black" stroke-width="3"/>
<path id="black-strand3" d="M341.236 96.6519C355.367 113.202 367.751 148.932 367.622 167.141" stroke="black" stroke-width="3"/>
<path id="black-strand2" d="M239.204 82.6484C247.923 90.8209 264.917 118.617 263.144 164.422" stroke="black" stroke-width="3"/>
<path id="black-strand" d="M281.216 83.9155C286.254 89.0892 297.677 102.548 303.061 114.993" stroke="black" stroke-width="3"/>
</g>
</g>
</svg>