<svg viewBox="0 0 765 430" fill="none" xmlns="http://www.w3.org/2000/svg" xmlns:xlink="http://www.w3.org/1999/xlink">
<g id="idle">
<g id="right-leg">
<path id="outline" d="M202.5 244C216.1 241.2 223.5 234 226.5 223L186 203.5C180 209 161.5 216.5 156 218C152.701 218.9 147.063 219.44 142 220.375C134.5 216.751 117.5 220.5 116.5 230C115.7 237.6 119.5 239.667 123 240.5C123.4 247.3 130.167 247.333 133.5 246.5C134.3 251.7 140.167 252.667 143 252.5C144 260 150.5 261 154 260C157.5 259 164.75 251.572 175.5 248.5C186 245.5 185.5 247.5 202.5 244Z" fill="#636E5C"/>
<path id="nail4" d="M110 246.5C110 243.667 111.4 237.3 117 234.5" stroke="black" stroke-width="3"/>
<path id="nail3" d="M121.5 252C121.5 249.333 122.9 243.2 128.5 240" stroke="black" stroke-width="3"/>
<path id="nail2" d="M132.5 256.5C132.833 254 134.6 248.6 139 247" stroke="black" stroke-width="3"/>
<path id="nail1" d="M142 264.5C142.167 261.833 143.9 256.1 149.5 254.5" stroke="black" stroke-width="3"/>
<path id="scale2" d="M177.5 235C177.334 236.667 177.9 240 181.5 240" stroke="#333F2E" stroke-width="2"/>
<path id="scale" d="M188.5 231C188.833 233.333 190.8 237.6 196 236M196.5 224.5C196.833 226.167 198.8 229.2 204 228M186 224C186 225.833 187.4 229.2 193 228M194 228.5C194.333 230.833 196.5 235.3 202.5 234.5C202.333 235.667 202.8 237.9 206 237.5" stroke="#333F2E" stroke-width="2"/>
<path id="outline_2" d="M226 225.5C224 233 216.1 241.2 202.5 244C185.5 247.5 186 245.5 175.5 248.5C164.75 251.572 157.5 259 154 260C150.5 261 144 260 143 252.5M143 252.5C142.001 245 153.167 236 159.5 232M143 252.5C140.167 252.667 134.3 251.7 133.5 246.5M133.5 246.5C132.5 240 140.5 229.5 151 227M133.5 246.5C130.167 247.333 123.4 247.3 123 240.5M123 240.5C122.5 232 128.499 226 133.5 223C135.501 221.8 138.623 220.999 142 220.375M123 240.5C119.5 239.667 115.7 237.6 116.5 230C117.5 220.5 134.5 216.751 142 220.375M186 203.5C180 209 161.5 216.5 156 218C152.701 218.9 147.063 219.44 142 220.375" stroke="black" stroke-width="5"/>
</g>
<g id="body">
<path id="fill" d="M188 203.5C178.8 195.1 160.833 190 153 188.5C153 188.5 171.5 188 184 183.5C196.5 179 232.5 152 235 135C237.5 118 222.5 65 222.5 65C239.5 49 248.942 61.275 277.5 65C312 69.5 360.5 57.5 400 45C439.5 32.5 530.033 21.6106 555.5 22.9998C610.5 25.9998 626.482 54.9136 648 66.5C670 98.5 658.833 135.833 650.5 150.5C634.5 169.5 604 167.5 575.5 174C553 193.5 468 217 429 213C404 230.5 299.5 242.5 262.5 236C225.5 229.5 199.5 214 188 203.5Z" fill="#636E5A"/>
<path id="flesh" d="M539 145.5C547 164.7 537.333 186 531.5 195C488.5 208.5 457 214 428.5 214C421.7 218.4 379.667 230.167 374.5 231C372.5 233.333 362 186 362 164.5C362.001 118.167 368.334 87.6667 374.501 70C397.667 55 443 31.2999 473 48.5C510.5 70 529 121.5 539 145.5Z" fill="#BFBBA3"/>
<path id="rib4" d="M551.5 144C553.1 164 543.333 183.333 538.5 192.5L510 201.5C510 201.5 530.5 168.5 527.5 144C524.5 119.5 510 99 510 87C523.5 92 549.5 119 551.5 144Z" fill="#644543" stroke="black" stroke-width="3"/>
<path id="rib3" d="M508 154.5C509.6 174.5 499.833 195.833 495 205L466.5 210.5C466.5 210.5 487 179 484 154.5C481 130 466.5 109.5 466.5 97.5C480 102.5 506 129.5 508 154.5Z" fill="#644543" stroke="black" stroke-width="3"/>
<path id="rib2" d="M466.5 165C468.1 185 465 196 457 211.5C451 214 428.5 212.5 428.5 212.5C428.5 212.5 443.5 195.5 446 165C448.5 134.5 427 110 427 98C440.5 103 464.5 140 466.5 165Z" fill="#644543" stroke="black" stroke-width="3"/>
<path id="rib1" d="M431.5 162C433.1 182 423 208 418.5 218C406.5 223 383 227.5 383 227.5C383 227.5 408.5 192.5 411 162C413.5 131.5 392 107 392 95C405.5 100 429.5 137 431.5 162Z" fill="#644543" stroke="black" stroke-width="3"/>
<path id="scale2_2" d="M220 213C222.506 214.114 225.012 213.677 227 212.553M227 212.553C228.582 211.659 229.835 210.329 230.5 209C234 211.5 237.5 210.5 237.5 210.5M227 212.553C231.5 218 237.5 213.5 237.5 210.5M237.5 210.5C237.5 210.5 241 210 242.5 207" stroke="#414B3D" stroke-width="2"/>
<path id="scale2_3" d="M345 219C347.506 220.114 350.012 219.677 352 218.553M352 218.553C353.582 217.659 354.835 216.329 355.5 215C359 217.5 362.5 216.5 362.5 216.5M352 218.553C356.5 224 362.5 219.5 362.5 216.5M362.5 216.5C362.5 216.5 366 216 367.5 213" stroke="#414B3D" stroke-width="2"/>
<path id="scale2_4" d="M553 164C555.506 165.114 558.012 164.677 560 163.553M560 163.553C561.582 162.659 562.835 161.329 563.5 160C567 162.5 570.5 161.5 570.5 161.5M560 163.553C564.5 169 570.5 164.5 570.5 161.5M570.5 161.5C570.5 161.5 574 161 575.5 158" stroke="#414B3D" stroke-width="2"/>
<path id="scale2_5" d="M587 155C589.506 156.114 592.012 155.677 594 154.553M594 154.553C595.582 153.659 596.835 152.329 597.5 151C601 153.5 604.5 152.5 604.5 152.5M594 154.553C598.5 160 604.5 155.5 604.5 152.5M604.5 152.5C604.5 152.5 608 152 609.5 149" stroke="#414B3D" stroke-width="2"/>
<path id="scale2_6" d="M565 134C567.506 135.114 570.012 134.677 572 133.553M572 133.553C573.582 132.659 574.835 131.329 575.5 130C579 132.5 582.5 131.5 582.5 131.5M572 133.553C576.5 139 582.5 134.5 582.5 131.5M582.5 131.5C582.5 131.5 586 131 587.5 128" stroke="#414B3D" stroke-width="2"/>
<path id="scale2_7" d="M609 127C611.506 128.114 614.012 127.677 616 126.553M616 126.553C617.582 125.659 618.835 124.329 619.5 123C623 125.5 626.5 124.5 626.5 124.5M616 126.553C620.5 132 626.5 127.5 626.5 124.5M626.5 124.5C626.5 124.5 630 124 631.5 121" stroke="#414B3D" stroke-width="2"/>
<path id="scale2_8" d="M582 108C584.506 109.114 587.012 108.677 589 107.553M589 107.553C590.582 106.659 591.835 105.329 592.5 104C596 106.5 599.5 105.5 599.5 105.5M589 107.553C593.5 113 599.5 108.5 599.5 105.5M599.5 105.5C599.5 105.5 603 105 604.5 102" stroke="#414B3D" stroke-width="2"/>
<path id="scale_2" d="M256 227C258.506 228.114 261.012 227.677 263 226.553M278.5 221C277 224 273.5 224.5 273.5 224.5M263 226.553C264.582 225.659 265.835 224.329 266.5 223C270 225.5 273.5 224.5 273.5 224.5M263 226.553C267.5 232 273.5 227.5 273.5 224.5" stroke="#414B3D" stroke-width="2"/>
<path id="outline_3" d="M650.5 149.5C634.5 168.5 604 166.5 575.5 173C553 192.5 468 216 429 212C404 229.5 299.5 241.5 262.5 235C225.5 228.5 199.5 213 188 202.5C178.8 194.1 160.833 189 153 187.5C153 187.5 171.5 187 184 182.5C196.5 178 232.5 151 235 134C237.5 117 222.5 64 222.5 64C239.5 48 248.942 60.275 277.5 64C312 68.5 360.5 56.5 400 44C439.5 31.5 530.033 20.6106 555.5 21.9998C610.5 24.9998 626.482 53.9136 648 65.5" stroke="black" stroke-width="5"/>
</g>
<g id="left-leg">
<path id="outline_4" d="M433.5 190.5C404.7 174.1 348.5 118 345.5 106.5C334 113.5 286.5 131 286.5 131C296.1 154.2 348.721 217.833 359.582 227C354.336 229.948 349.386 233.458 345.5 237.5C335.5 247.9 313 254.5 305.5 255C303.883 255.108 301.629 255.22 299 255.374C293.334 255.25 278.599 253.363 265.5 255C253.5 256.5 247.001 260.5 245.001 262.5C243.42 264.081 241 268.5 243.5 274C246.3 278.8 252.334 280 255 280C255.4 286.8 262.903 289.167 266.605 289.5C266.255 292.005 266.435 294.711 268 296.5C270.8 299.7 281.711 300.5 286.816 300.5C286.607 301.212 286.5 301.883 286.5 302.5C286.5 307.5 293.5 311 301 310.5C308.5 310 312 305 317.5 302.5C323 300 353.5 301 362 300.5C368.8 300.1 380.5 291 385.5 286.5C395.667 287.5 420.6 288 439 282C462 274.5 478.5 251 478 240.5C477.5 230 469.5 211 433.5 190.5Z" fill="#636E5C" stroke="black"/>
<path id="scale11" d="M409.5 227C409.167 228.667 409.5 231.9 413.5 231.5M403 220.5C403.5 222.667 405.8 227 411 227" stroke="#333F2E" stroke-width="2"/>
<path id="scale10" d="M410 257.5C409.5 260.333 409.9 265.7 415.5 264.5C412.5 270 418 272.5 419.5 272.5C418 274.5 415.5 279 421 280M417.5 257.5C415.667 259.833 413.5 264.8 419.5 266M423.5 267.5C421.667 270 419.6 275.1 426 275.5" stroke="#333F2E" stroke-width="2"/>
<path id="scale9" d="M371.704 210.305C374.574 210.501 379.868 209.531 378.078 204.091C383.867 206.488 385.767 200.753 385.607 199.262C387.755 200.54 392.496 202.547 392.904 196.971M370.905 202.848C373.42 204.422 378.59 206.048 379.144 199.954M380.209 195.817C382.89 197.374 388.181 198.885 387.897 192.479" stroke="#333F2E" stroke-width="2"/>
<path id="scale8" d="M378 243C377.834 245.5 379.1 249.9 385.5 247.5C384 255.5 388.5 255.5 390 255.5C388.5 264 400 265 400 265M378.5 250.5C377.834 252.5 377.8 256.2 383 255M384 258C383.5 260.833 384 266.1 390 264.5" stroke="#333F2E" stroke-width="2"/>
<path id="scale7" d="M407.199 210.198C409.7 210.342 414.089 209.035 411.631 202.657C419.644 204.085 419.604 199.585 419.59 198.085C428.103 199.509 429 188 429 188M414.694 209.63C416.7 210.278 420.4 210.278 419.153 205.089M422.144 204.062C424.982 204.537 430.244 203.989 428.59 198.004" stroke="#333F2E" stroke-width="2"/>
<path id="scale6" d="M351 269.5C350.667 271.333 353.2 275.3 358 274.5C358.833 277.5 362.4 282.4 370 278M355.5 267.5C356 269.833 358.1 273.8 362.5 271" stroke="#333F2E" stroke-width="2"/>
<path id="scale5" d="M459.104 244.935C459.812 246.658 464.085 248.631 467.695 245.368C470.015 247.444 475.662 249.646 479.687 241.841M461.814 240.823C463.493 242.518 467.402 244.725 469.596 239.993" stroke="#333F2E" stroke-width="2"/>
<path id="scale4" d="M426.815 237.323C425.587 238.338 425.058 242.326 428.636 244.448C427.528 246.868 427.16 252.035 434.551 253.346M430.858 238.495C429.899 240.296 429.087 244.045 433.505 244.639" stroke="#333F2E" stroke-width="2"/>
<path id="scale3" d="M344.5 245C343.834 247 343.8 250.9 349 250.5" stroke="#333F2E" stroke-width="2"/>
<path id="scale2_9" d="M443.311 215C442.644 217 442.611 220.9 447.811 220.5" stroke="#333F2E" stroke-width="2"/>
<path id="scale_3" d="M402.962 191.226C405.036 191.605 408.902 191.091 407.777 185.999" stroke="#333F2E" stroke-width="2"/>
<path id="outline_5" d="M374 139.5C382.167 149.667 405.7 174.1 434.5 190.5C470.5 211 478.5 230 479 240.5C479.5 251 463 274.5 440 282C421.6 288 396.667 287.5 386.5 286.5C381.5 291 369.8 300.1 363 300.5C354.5 301 324 300 318.5 302.5C313 305 309.5 310 302 310.5C294.5 311 287.5 307.5 287.5 302.5C287.5 301.883 287.607 301.212 287.816 300.5M332.5 279C327.834 278.333 316.1 278.2 306.5 283C295.981 288.259 289.304 295.44 287.816 300.5M287.816 300.5C282.711 300.5 271.8 299.7 269 296.5C267.435 294.711 267.255 292.005 267.605 289.5M300 268.5C296 267 288.358 268.986 281 273C275.5 276 270.334 281.667 269 284.5C268.486 285.676 267.881 287.525 267.605 289.5M267.605 289.5C263.903 289.167 256.4 286.8 256 280C255.98 279.662 255.965 279.329 255.955 279M431 222C420 214.5 400.5 215 391.5 216C385.298 216.689 372.211 220.465 360.582 227M255.955 279C255.712 271.063 258.438 265.781 269 260.5C275.903 257.049 290.435 255.935 300 255.374M255.955 279C252.97 279.167 246.5 278.4 244.5 274C242 268.5 244.42 264.081 246.001 262.5C248.001 260.5 254.5 256.5 266.5 255C279.599 253.363 294.334 255.25 300 255.374M300 255.374C302.629 255.22 304.883 255.108 306.5 255C314 254.5 336.5 247.9 346.5 237.5C350.386 233.458 355.336 229.948 360.582 227M360.582 227C349.721 217.833 325.6 193.7 316 170.5" stroke="black" stroke-width="5"/>
<path id="nail4_2" d="M248 274C244.667 274.333 237.4 276.6 235 283" stroke="black" stroke-width="3"/>
<path id="nail3_2" d="M279 293C275.667 293.333 267.9 297.1 265.5 303.5" stroke="black" stroke-width="3"/>
<path id="nail2_2" d="M295 303C291.667 303.333 284.4 305.6 282 312" stroke="black" stroke-width="3"/>
<path id="nail1_2" d="M261 282.5C257.667 282.833 250.4 285.1 248 291.5" stroke="black" stroke-width="3"/>
</g>
<g id="back-foot">
<path id="outline_6" d="M597.598 205C586.398 210.2 562.598 207.167 552.098 205C549.599 203.961 546.693 202.494 543.598 200.604C536.765 202.069 522.498 207.6 520.098 218C517.698 228.4 522.633 233.333 525.4 234.5C524.944 236.555 524.923 238.751 525.598 241C527.998 249 537.346 250 541.719 249.5C543.885 253.237 548.764 255.293 552.098 256C555.431 256.333 565.398 254.5 578.598 244.5C591.798 234.5 615.431 233.167 625.598 234.5C634.098 236 640.975 236.6 646.175 233C652.675 228.5 660.598 214 658.098 196C656.098 181.6 652.483 173.5 646.175 168C640.425 176.785 631.81 187.48 625.598 191.5L597.598 205Z" fill="#636E5A"/>
<path id="outline_7" d="M597.598 205C586.398 210.2 562.598 207.167 552.098 205C549.599 203.961 546.693 202.494 543.598 200.604C536.765 202.069 522.498 207.6 520.098 218C517.698 228.4 522.633 233.333 525.4 234.5M625.598 191.5C631.81 187.48 640.425 176.785 646.175 168C652.483 173.5 656.098 181.6 658.098 196C660.598 214 652.675 228.5 646.175 233C640.975 236.6 634.098 236 625.598 234.5C615.431 233.167 591.798 234.5 578.598 244.5C565.398 254.5 555.431 256.333 552.098 256C548.764 255.293 543.885 253.237 541.719 249.5M566.598 224C558.598 225.5 548.598 227.5 542.098 240C540.051 243.937 540.313 247.073 541.719 249.5M541.719 249.5C537.346 250 527.998 249 525.598 241C524.923 238.751 524.944 236.555 525.4 234.5M546.598 220C539.798 218.8 534.765 221.5 533.098 223C530.582 224.917 526.567 229.246 525.4 234.5" stroke="black" stroke-width="5"/>
<path id="nail3_3" d="M520.5 248.5C522.333 246.167 527 241.6 531 242" stroke="black" stroke-width="3"/>
<path id="nail2_3" d="M540.5 257.5C542 254.667 546.4 248.9 552 248.5" stroke="black" stroke-width="3"/>
<path id="nail1_3" d="M510 235C511.833 232.667 517 227.6 523 226" stroke="black" stroke-width="3"/>
</g>
<g id="tail">
<path id="fill_2" d="M636.5 218.12C663.7 180.52 658.5 154.787 652.5 148.62L650 64.6201C666 73.2355 720 101.12 733.5 140.62C747 180.12 750 234.12 729.5 260.62C709 287.12 671.517 312.998 640.5 322.12C615 329.62 603.5 334.62 551 332.62C498.5 330.62 469.5 342.62 439.5 353.62C415.5 362.42 380.167 400.62 365.5 418.62C367.5 403.12 372.5 382.12 382.5 367.62C396.775 346.921 412.5 326.62 454.5 310.12C486 297.745 525.5 295.62 551 284.62C566.144 278.088 602.5 265.12 636.5 218.12Z" fill="#636E5A"/>
<path id="Vector 56" d="M451 328.5C453.333 329.333 458.9 330 462.5 326" stroke="#333F2E"/>
<path id="Vector 57" d="M489 321.5C490.5 323 494.2 325.1 497 321.5" stroke="#333F2E"/>
<path id="Vector 58" d="M467.5 332.5C468.333 333.667 471 335.3 475 332.5" stroke="#333F2E"/>
<path id="Vector 59" d="M402 359.5C404 360.833 409.1 362.3 413.5 357.5" stroke="#333F2E"/>
<path id="Vector" d="M530 314.5C531 316 533.9 318.1 537.5 314.5M550.5 317.5C547.5 319.833 540.9 323.1 538.5 317.5M534 313.5C535.5 315.333 539.6 317.9 544 313.5M544.5 312.5C546 315.167 550.6 319.4 557 315M526 312.5C527.667 313.5 531.7 314.9 534.5 312.5" stroke="#333F2E"/>
<path id="Vector_2" d="M624 317C626 318.5 630.5 320.6 632.5 317M639 314.5C638.333 316.167 636.2 319 633 317M629.5 312.5C631 314.167 634.9 316.5 638.5 312.5C641.7 315.3 646.167 311.333 648 309M619 315.5C621.5 316.167 627.1 316.3 629.5 311.5M634 307.5C635.333 308.667 639.2 309.6 644 304" stroke="#333F2E"/>
<path id="Vector 45" d="M666.5 286.5C669.333 288.5 675.4 291.3 677 286.5" stroke="#333F2E"/>
<path id="Vector_3" d="M587.5 293.5C589.333 295.5 593.4 298.3 595 293.5M576 292.5C577.667 295.167 581.9 299.4 585.5 295M569.5 290C569.667 292.5 571 296.5 575 292.5M583.5 289C585 291.333 589.1 294.6 593.5 289M575.5 287C575.833 289.667 578 293.4 584 287" stroke="#333F2E"/>
<path id="Vector_4" d="M643 252.5C644.667 253.333 648.4 253.5 650 247.5M633.5 256.5C635.333 258 639.6 259.7 642 254.5M626.5 260.5C628 261 631.5 260.8 633.5 256M636 250.5C638.167 251.833 642.7 252.8 643.5 246M626 253.5C628.333 254.5 633.3 255.4 634.5 251" stroke="#333F2E"/>
<path id="Vector_5" d="M691 252.5C692.667 254 696.7 255.5 699.5 249.5M685.5 256C685.833 257.5 687.2 259.6 690 256M680.5 254C681.667 254.833 684.4 255.6 686 252M685 250C687.333 251 692.3 251.8 693.5 247M703 244C700.833 246 696 249.4 694 247" stroke="#333F2E"/>
<path id="Vector_6" d="M654.5 230.5C655.5 231 658 231.1 660 227.5M657.5 226C659 226.5 662.6 226.6 665 223" stroke="#333F2E"/>
<path id="Vector_7" d="M722.5 216.5C725.333 217.167 731.5 216.6 733.5 209M709 224C711.5 224.5 717.1 224.2 719.5 219" stroke="#333F2E"/>
<path id="Vector 25" d="M668.5 211.5C670.167 212.333 674.1 212.7 676.5 207.5" stroke="#333F2E"/>
<path id="Vector_8" d="M697 192C699.833 193.667 706 195.4 708 189M697 199C698.333 200.333 701.1 201.6 701.5 196M689 195.5C691 197.5 695.5 200.3 697.5 195.5M702.5 186.5C705.833 187.667 712.3 187.9 711.5 179.5M693 191.5C695.5 192 700.7 191.7 701.5 186.5M685.5 193C686.833 193.667 690 194 692 190" stroke="#333F2E"/>
<path id="Vector_9" d="M669 186.5C670.333 188.167 673.4 190.5 675 186.5M659 185C660.167 186.333 663.1 188.2 665.5 185M672.5 180.5C674 182.333 677.7 184.9 680.5 180.5M658 179.5C659.833 181.833 664.1 185.6 666.5 182M667 182.5C668.167 184.167 671 186.5 673 182.5" stroke="#333F2E"/>
<path id="Vector_10" d="M720.5 148.5C723 149.5 728.2 150.5 729 146.5M708 152.5C711 154.167 717.1 155.9 717.5 149.5" stroke="#333F2E"/>
<path id="Vector_11" d="M674.5 154.5C677.833 155.167 684.8 154.6 686 147M665.5 158C667.167 159 671.3 159.5 674.5 153.5M660.5 162C661.167 162.833 663 163.2 665 158M661 154C662.333 154.5 665.5 154.4 667.5 150M678.5 144.5C677.333 148.167 673.7 154.4 668.5 150M664 146C665.667 146.5 669.4 146.5 671 142.5" stroke="#333F2E"/>
<path id="Vector_12" d="M691.5 129C693 129.333 696.7 129.3 699.5 126.5M708.5 123C707.5 125.167 704.4 129.1 700 127.5" stroke="#333F2E"/>
<path id="Vector_13" d="M680 117.5C682 118.333 686.8 119.1 690 115.5M669.5 120.5C671.167 121.667 675.1 123.3 677.5 120.5M663 119.5C663.833 119.833 666 119.7 668 116.5M679 110.5C678.5 113.167 676.1 117.9 670.5 115.5" stroke="#333F2E"/>
<path id="outline_8" d="M652.5 148.62C658.5 154.787 663.7 180.52 636.5 218.12C602.5 265.12 566.144 278.088 551 284.62C525.5 295.62 486 297.745 454.5 310.12C412.5 326.62 396.775 346.921 382.5 367.62C372.5 382.12 367.5 403.12 365.5 418.62C380.167 400.62 415.5 362.42 439.5 353.62C469.5 342.62 498.5 330.62 551 332.62C603.5 334.62 615 329.62 640.5 322.12C671.517 312.998 709 287.12 729.5 260.62C750 234.12 747 180.12 733.5 140.62C720 101.12 662 73.1154 646 64.5" stroke="black" stroke-width="5"/>
</g>
<g id="back-leg">
<path id="fill_3" d="M511 142C513 106.4 533.5 89.5 543.5 85.5L557 22C569.833 22.5 598.081 29.9195 618 42.5C637 54.5 652 73.5 657.5 92.5C663 111.5 656 151 652 159.5C650.923 161.788 649.194 164.764 647.077 168C641.327 176.785 632.712 187.48 626.5 191.5L598.5 205C587.3 210.2 563.5 207.167 553 205C550.501 203.961 547.595 202.494 544.5 200.604C529.224 191.271 509.337 171.602 511 142Z" fill="#636E5A"/>
<path id="back-leg-scale15" d="M547 199.5C548.5 200.667 552.2 202 555 198" stroke="#333F2E" stroke-width="2"/>
<path id="back-leg-scale14" d="M601 184.5C603.5 185.667 608.9 186.9 610.5 182.5M604 188.5C605 190.5 608.1 193.3 612.5 188.5M583.5 191.5C584.833 193 588.3 194.6 591.5 189M595 190.5C597 191.5 601.6 192.3 604 187.5" stroke="#333F2E" stroke-width="2"/>
<path id="back-leg-scale13" d="M572.5 196C573.667 198 576.7 200.8 579.5 196" stroke="#333F2E" stroke-width="2"/>
<path id="back-leg-scale12" d="M626 165.5C629 166.833 635.7 167.7 638.5 160.5M617 170C618.333 171.167 622 171.8 626 165" stroke="#333F2E" stroke-width="2"/>
<path id="back-leg-scale11" d="M643 148.5C644.667 149.5 648.6 150.5 651 146.5M633.5 153C635.5 154 640 154.9 642 150.5M627 155.5C628.167 156.167 631 156.6 633 153M638 148C639.333 148.333 642.7 148.3 645.5 145.5M627 148.5C628.833 149.667 633 151.3 635 148.5" stroke="#333F2E" stroke-width="2"/>
<path id="back-leg-scale10" d="M629.5 84C632.333 84.6667 637.6 84.1 636 76.5" stroke="#333F2E" stroke-width="2"/>
<path id="back-leg-scale9" d="M533.5 150C535.5 151.667 540.3 153.5 543.5 147.5" stroke="#333F2E" stroke-width="2"/>
<path id="back-leg-scale8" d="M567.5 177C569.833 179.5 575.1 183 577.5 177M560.5 182.5C562 183.333 565.4 184 567 180M562 177C564.333 178 569.3 178.6 570.5 173M552 178C554.333 179.333 559.4 180.9 561 176.5M544.5 178.5C546 179.667 549.6 180.9 552 176.5M564.5 170.5C567 171.833 572.5 173 574.5 167M555.5 173C557.167 175.167 561 177.8 563 171M548 174C549 175.5 551.8 177.6 555 174M571 171.5C573.333 173.667 578.3 176.1 579.5 168.5" stroke="#333F2E" stroke-width="2"/>
<path id="back-leg-scale7" d="M633.5 132C636.5 132.667 642.1 132.2 640.5 125M622 136.5C623.5 137.333 627 137.8 629 133M643.5 116.5C645.1 124.5 639.167 125.167 636 124.5C636.4 131.3 630.167 133 627 133M619.5 132C621.5 132.333 625.7 131.4 626.5 125" stroke="#333F2E" stroke-width="2"/>
<path id="back-leg-scale6" d="M553 146.5C555.167 147.333 559.5 147.3 559.5 140.5M550.5 153C552.833 153.333 557.8 152.6 559 147M571.5 138.5C571.167 142.5 568.4 149.6 560 146" stroke="#333F2E" stroke-width="2"/>
<path id="back-leg-scale5" d="M592.5 116C594.667 117.5 599.3 118.7 600.5 111.5C603.5 113.5 610 114.5 611 107.5M594.5 107.5C596.667 109.167 601.7 111.1 604.5 105.5M603.5 107C605.597 107.655 609.159 107.713 610 104.204M610 104.204C610.228 103.252 610.256 102.037 610 100.5M610 104.204C615.333 105.136 624.2 104.9 617 96.5" stroke="#333F2E" stroke-width="2"/>
<path id="back-leg-scale4" d="M539 113C542 114.667 548.3 116.1 549.5 108.5M531 120C532.833 120.833 536.6 120.7 537 113.5" stroke="#333F2E" stroke-width="2"/>
<path id="back-leg-scale3" d="M571.5 87.5C574.167 87.8333 579 86.8 577 80M564 95C565.333 95.5 568.2 95.2 569 90" stroke="#333F2E" stroke-width="2"/>
<path id="back-leg-scale2" d="M624 68C624.833 68.3333 626.6 68 627 64M625 62C626.5 61.6667 629.3 59.9 628.5 55.5" stroke="#333F2E" stroke-width="2"/>
<path id="back-leg-scale" d="M582.5 68.5C584.833 68.6667 588.8 67.7 586 62.5M581.5 52C583.5 55.3333 585.7 61.5 578.5 59.5M572 71C574 71.1667 578.1 70.2 578.5 65" stroke="#333F2E" stroke-width="2"/>
<path id="outline_9" d="M543.5 85.5C533.5 89.5 513 106.4 511 142C509.337 171.602 529.224 191.271 544.5 200.604C547.595 202.494 550.501 203.961 553 205C563.5 207.167 587.3 210.2 598.5 205M557 22C569.833 22.5 598.081 29.9195 618 42.5C637 54.5 652 73.5 657.5 92.5C663 111.5 656 151 652 159.5C650.923 161.788 649.194 164.764 647.077 168C641.327 176.785 632.712 187.48 626.5 191.5" stroke="black" stroke-width="5"/>
</g>
<g id="bottom-head">
<path id="mouth-fill" d="M196 108C208.4 110 222.5 132.167 228 143C220 137.5 211 139.5 200 146C141.5 172.5 146.5 167.5 112 173C77.5 178.5 63 168 56 164C50.4 160.8 43 151.667 40 147.5C48.6667 147.833 69.4 148.3 83 147.5C100 146.5 131.5 128.5 142.5 122C153.5 115.5 180.5 105.5 196 108Z" fill="#857F6C"/>
<path id="mouth-fill2" d="M169.5 122.5C157.5 120.5 139.833 125.833 133.5 129L150 117.5C164.167 112 194.1 103.7 202.5 110.5C210.9 117.3 222.167 133.334 226.5 141C219 139 213 139.5 204 141C195 142.5 184.5 125 169.5 122.5Z" fill="#6C6451"/>
<path id="bottom-jaw-fill" d="M36.5001 155.5C34.1126 149.133 38.0001 145.5 40.5001 147C46.4997 155 46.9997 155.5 60.4997 166C79.9997 179 119 173 138 169.5C157 166 204 142.5 214 140C222 138 228.333 142.5 230.5 145C239.333 151 255.6 165 250 173C243 183 223 193 216 192.5C208 189.5 201 188 189 188C176 186 98.0001 192 82.0001 187.5C66.0001 183 38.9999 167.5 36.5001 155.5Z" fill="#BFBAA4"/>
<path id="bottom-jaw-shade" d="M217.5 184.5C223.5 182.1 233.5 172.5 236 167.5C238.5 162.5 240.5 154.5 240.5 154.5L252 158V168.5C251.834 171.833 247.633 177.128 242 181C234 186.5 229.5 189.5 222.5 191.5C215.5 193.5 210 192 202 190.5C194 189 151.5 188 134.5 189C120.83 189.804 92.5005 189 82.5 187.5C72.4996 186 52.0003 172.5 65.5003 178C79.0003 183.5 105.001 186.5 123.5 184.5C142 182.5 153.5 182 169.5 182C185.5 182 211.5 186.9 217.5 184.5Z" fill="#A09477"/>
<path id="bottom-jaw" d="M169.999 107C150.499 118.5 107.799 142.2 92.9993 145C78.1993 147.8 46.9993 148.5 40.9993 145M40.9993 145C39.8928 144.355 39.5311 144.668 39.8503 145.652M40.9993 145C40.6097 145.195 40.2249 145.412 39.8503 145.652M39.8503 145.652C41.2619 150.002 55.9894 167.454 78.4993 173C94.1659 175 134.399 174.9 169.999 158.5C214.5 138 217 135 231 145M39.8503 145.652C32.8531 150.129 29.4306 162.396 65.4996 181C70.6664 184.333 87.4 190.7 113 189.5C145 188 205 185.5 216.5 193" stroke="black" stroke-width="5"/>
<path id="bottom-tooth7" d="M106 124C102.4 128.4 106 135.834 109 139L118 135C118 135 116.5 120 113 120.5C109.5 121 107.636 122 106 124Z" fill="white" stroke="black" stroke-width="3"/>
<path id="bottom-tooth7_2" d="M113 120.5C112.5 125 114.507 131.346 117.507 134.513L126.507 130.513C126.507 130.513 125.282 119.513 121.5 118C119 117.001 114.637 118.5 113 120.5Z" fill="white" stroke="black" stroke-width="3"/>
<path id="bottom-tooth7_3" d="M122.5 117C122.501 120.5 124.499 126.833 127.499 130L135.999 126C135.999 126 135.281 116.009 131.5 114.496C129 113.497 124.136 115 122.5 117Z" fill="white" stroke="black" stroke-width="3"/>
<path id="bottom-tooth7_4" d="M132.001 113.5C131.5 117 133.5 122.333 136.5 125.5L146.001 120.5C146.001 120.5 144.281 112.513 140.5 111C138 110.001 133.637 111.5 132.001 113.5Z" fill="white" stroke="black" stroke-width="3"/>
<path id="bottom-tooth6" d="M193.5 135C191.833 137 194.434 147.393 194.434 147.393L203.435 143.393C203.435 143.393 202 135.5 200.5 134C199 132.5 195.167 133 193.5 135Z" fill="white" stroke="black" stroke-width="3"/>
<path id="bottom-tooth5" d="M183.5 137C181.833 139 185.435 151.393 185.435 151.393L194.435 147.393C194.435 147.393 194 136.5 191.5 135.5C189 134.5 185.167 135 183.5 137Z" fill="white" stroke="black" stroke-width="3"/>
<path id="bottom-tooth4" d="M174.5 140C172.833 142 176.435 155.393 176.435 155.393L185.435 151.393C185.435 151.393 185 139 182.5 138C180 137 176.167 138 174.5 140Z" fill="white" stroke="black" stroke-width="3"/>
<path id="bottom-tooth3" d="M164.5 142C162.833 144 166.5 159 166.5 159L178 154C178 154 176 141 173.5 140C171 139 166.167 140 164.5 142Z" fill="white" stroke="black" stroke-width="3"/>
<path id="bottom-tooth2" d="M152.999 145.5C151.332 147.5 154.5 164 154.5 164L167.5 159.5C167.5 159.5 166 143.5 163.5 142.5C161 141.5 154.666 143.5 152.999 145.5Z" fill="white" stroke="black" stroke-width="3"/>
<path id="bottom-tooth1" d="M140 149.5C137.5 152.5 142.5 168 142.5 168L155 163.5C155 163.5 154 148 152 147C150 146 142.5 146.5 140 149.5Z" fill="white" stroke="black" stroke-width="3"/>
<path id="bottom-fang9" d="M84.6689 128C77.6691 132.5 76.8355 143.833 79.1689 146.5C79.1689 146.5 89.5 146.5 97.5 143.5C95 140.5 89.5 134 84.6689 128Z" fill="white" stroke="black" stroke-width="3"/>
<path id="bottom-fang8" d="M69 129C62.0001 133.5 61.1666 144.833 63.4999 147.5C63.4999 147.5 72.9989 147.5 78.9997 146.5C76.5002 142.5 72.5 139 69 129Z" fill="white" stroke="black" stroke-width="3"/>
<path id="bottom-fang7" d="M53.9999 129C47 133.5 47.1667 144.333 49.5 147C49.5 147 57.0006 148 62 147.5C59.5005 143.5 56.9999 136.5 53.9999 129Z" fill="white" stroke="black" stroke-width="3"/>
<path id="bottom-fang6" d="M38.9995 131C33.9999 135 35.6664 143.833 37.9997 146.5C37.9997 146.5 43.0006 147 48 146.5C45.5005 142.5 41 137 38.9995 131Z" fill="white" stroke="black" stroke-width="3"/>
<path id="bottom-fang5" d="M109.5 153.5C103 158.5 101 169 100.5 173.5C104.5 173.5 119.5 173 124 171.5C123 167 114.5 163 109.5 153.5Z" fill="white" stroke="black" stroke-width="3"/>
<path id="bottom-fang4" d="M95.5 153.5C88 157 84.5 168 84 172.5C86.5 174.5 97 174.5 106.5 173.5C105.5 169 97.5 163 95.5 153.5Z" fill="white" stroke="black" stroke-width="3"/>
<path id="bottom-fang3" d="M79.5 151C72.7 152.2 66.5 163 66 167.5C68.5 169.5 79 174.5 88.5 173.5C87.5 169 79.5 161 79.5 151Z" fill="white" stroke="black" stroke-width="3"/>
<path id="bottom-fang2" d="M65 147C58.2 148.2 51.3333 156.5 51 158.5C51 158.5 61 166.5 67 168.5C66 164 63 156.5 65 147Z" fill="white" stroke="black" stroke-width="3"/>
<path id="bottom-fang1" d="M50.5 140C43.7 141.2 41.3333 145.5 41 147.5C41 147.5 45.5 156 51.5 158C50.5 153.5 48.5 149.5 50.5 140Z" fill="white" stroke="black" stroke-width="3"/>
</g>
<g id="top-head">
<path id="tooth6" d="M192 119C192 119 192 112.5 192 107C196 104 203 110.5 203 110.5C203 110.5 203 118 200.5 120C198.5 120.5 196 121 192 119Z" fill="white" stroke="black" stroke-width="3"/>
<path id="tooth5" d="M183.5 117V106H192V118C192 118 187.2 120 183.5 117Z" fill="white" stroke="black" stroke-width="3"/>
<path id="tooth4" d="M173 116.5V103.5L184 105.5V117.5C184 117.5 176.7 119.5 173 116.5Z" fill="white" stroke="black" stroke-width="3"/>
<path id="tooth3" d="M162 118V102.5L173 104V118C173 118 165.7 121 162 118Z" fill="white" stroke="black" stroke-width="3"/>
<path id="tooth2" d="M150.2 117V99.5L161.2 101.5V117C161.2 117 153.9 120 150.2 117Z" fill="white" stroke="black" stroke-width="3"/>
<path id="tooth1" d="M139.5 113C136.8 108.5 139.5 96.5 139.5 96.5L150.5 100.5V117C150.5 117 142.2 117.5 139.5 113Z" fill="white" stroke="black" stroke-width="3"/>
<path id="fang6" d="M117.001 101C109 95 112.82 82.1667 114.82 77C120.5 81 123.5 83 128.5 86.5C122 89.5 121.5 91.5 117.001 101Z" fill="white" stroke="black" stroke-width="3"/>
<path id="fang5" d="M101.501 93C95.0006 84.5 101.5 74.1667 103.5 69C109 72.5 111.5 74 116.5 77C110 80 106.001 82.5 101.501 93Z" fill="white" stroke="black" stroke-width="3"/>
<path id="fang4" d="M86.4999 83.5C78.8999 75.9 81.5001 64.6667 83.5001 59.5C89.4998 62 93.4996 63.5 98.5 66.5C91.5 70.5 89.0004 71.5 86.4999 83.5Z" fill="white" stroke="black" stroke-width="3"/>
<path id="fang3" d="M68.9995 79C61.3995 71.4 63.4995 59.1667 65.4995 54L83.5 60.5C76.5 64.5 71.5 67 68.9995 79Z" fill="white" stroke="black" stroke-width="3"/>
<path id="fang2" d="M56.0004 76.5C47.6004 70.9 48.8338 57.1667 50.5004 51L66.5 54.5C61 59.5 55.5 63.5 56.0004 76.5Z" fill="white" stroke="black" stroke-width="3"/>
<path id="fang1" d="M41.4996 68.5C32.6996 53.3 37.8329 45.5 41.4996 43.5C42.5 49 51 52 55.5 52.5C50.5 56 45 64 41.4996 68.5Z" fill="white" stroke="black" stroke-width="3"/>
<path id="top-jaw-fill" d="M39 42C39 32.0001 54.5 27.1667 63 27.5C75.5 27.9902 109.5 51.5 128.5 55C148.5 52.6667 192.4 49.9 208 57.5C227.5 67 249.5 84.5 251 112C252.2 134 250.5 159.833 249.5 170L232 146.5C220.5 133 211 112.5 194.5 106.5C182.9 104.9 139.5 102 130 89.5C114.4 74.7 86.9995 58.5 63 54.0001C52 51.9375 39 51 39 42Z" fill="#BFBAA4"/>
<path id="top-jaw-shade2" d="M244.5 115.885C244 106 238.833 87.2184 236 80.885C236 78.0517 238.3 76.285 247.5 91.885C256.7 107.485 254 168 250.5 172L239.5 158.5C239.5 158.5 245 125.77 244.5 115.885Z" fill="#A09477"/>
<path id="top-jaw-shade" d="M65.4995 48.4999C51.8995 47.2999 43.3324 39.8333 41.4991 36.5C40.8324 36.1667 38.9991 38 39.9995 43.9999C41.3255 51.9523 52.4995 52.9999 68.9995 55.4999C85.4995 57.9999 105 70.4999 113.5 75.9999C122 81.4999 132.999 95 147 98.9999C157.355 101.959 193 103.5 201 109C207.4 113.4 221.333 131.167 227.5 139.5C228.833 139.333 222.9 131 220.5 127C217.5 122 210.5 117.5 203.5 109C197.9 102.2 186.167 102.333 181 101.5C176.333 101.5 161.4 99 147 95C132.6 91 126.166 79.6666 120.5 74.9999C107.833 66.6666 79.0995 49.6999 65.4995 48.4999Z" fill="#9F927A"/>
<path id="eye-shade2" d="M201.5 91.5C199.1 88.7 200.167 85.6667 200.5 85C201.3 87 206.499 90.1667 208.999 91.5L205.999 96C205.499 95.6667 203.9 94.3 201.5 91.5Z" fill="#9F927A"/>
<path id="eye-shade" d="M233.5 96.9999C230.3 90.9999 226.167 91.1666 224.5 91.9999C228.9 95.9998 228 103.667 227 107L236 106.5C236.5 105.833 236.7 103 233.5 96.9999Z" fill="#525145"/>
<path id="eye-fill" d="M228 99C227.6 94.6 224.5 92.5 223 92L209.5 91C207.5 92.5 206.5 94.5 206.5 98.5C209.5 105.5 218 106.5 226.5 106.5C227.167 105.833 228.4 103.4 228 99Z" fill="#F7FB76" stroke="black" stroke-width="2"/>
<path id="eye-line" d="M200.5 85C201.667 86.8333 205 90.6 209 91M209 91C213 91.4 223 91.5 227.5 91.5C230.333 92.8333 236 97.6 236 106C232 107 222 107 213.5 105C209.5 103.667 203 99 209 91Z" stroke="black" stroke-width="2"/>
<path id="eye-slit" d="M213.5 95.5C213.5 94 214 91.5 214 91.5H212C212 91.5 211.5 96 212 97.5C212.5 99 214 99.5 214 99.5C214 99.5 213.5 97 213.5 95.5Z" fill="black"/>
<path id="crown-fill" d="M45 33.4998C52.5 27.5002 56.5 27.1666 65 27.5C77.5 27.9902 111.5 51.4999 130.5 54.9999C150.5 52.6666 195.285 48.3029 210 57.4999C218 62.5 225.389 66.5 230.5 72.5C217.5 68 205 65 193 65C178.5 66 160.5 68 139 68C127 63 123.5 61.5 105.5 52C96.5 47.25 71.5 27.5 45 33.4998Z" fill="#F8F4EA"/>
<path id="crown-shade" d="M183 57.4998C182 55.4998 133 56.4998 135.5 58.4998C138 60.4998 151.5 62.5 160.5 62.5C169.5 62.5 183.999 59.4998 183 57.4998Z" fill="#BCB7A2"/>
<path id="crown-line2" d="M235.5 76.4999C223.5 67.4998 200.5 64 183 65.4999C166.03 66.9542 147.5 70 139 66" stroke="black" stroke-width="2"/>
<path id="crown-line1" d="M100.5 44C108 52.5 118.2 57.2 129 62" stroke="black" stroke-width="2"/>
<path id="top-jaw" d="M232 146.5C220.5 133 211 112.5 194.5 106.5C182.9 104.9 139.5 102 130 89.5C114.4 74.7 86.9996 58.5 63 54.0001C52 51.9375 39 51 39 42C39 32.0001 54.5 27.1667 63 27.5C75.5 27.9902 109.5 51.5 128.5 55C148.5 52.6667 192.4 49.9 208 57.5C227.5 67 249.5 84.5 251 112C252.2 134 250.5 159.833 249.5 170" stroke="black" stroke-width="5"/>
</g>
<g id="hair">
<path id="fill" d="M222 65C227 59.5002 231.6 57.0002 238 57.0002C246 57.0002 264.106 62.1074 272 63.5002C280.5 65 315.716 71.7616 353 53.5002C377.5 41.5002 427 26.9999 451.5 22.9999C476 18.9999 502.001 14.154 517 20.5C530 26 543.5 43 547 57.5L547.059 57.7451C548.432 63.4207 551.884 77.6959 544 91C535.5 67.5 533 61.5 517 46.0002C522.5 60.5 528.8 117.4 504 131C509.5 96.5 493.5 69 481.5 57.5C487.5 70.5002 492.4 106.8 470 134C468.5 112.5 462 89 450 70.5002C455.5 88.0002 458.7 130.3 437.5 153.5C437.5 115.5 427.5 96.5 405.5 79.0002C415.667 93.8335 436.657 136 413.5 168C413.5 142.278 406.526 123.897 401.052 109.467L400.874 109C403.374 127 405.5 153.5 397 181C388 141 382.5 109 365 87.5002C376.5 111 389.5 159 360.5 201C362 157.5 359.5 146 342.5 111C351.667 142.834 359 219.5 315.5 257.5C324 233.5 330.5 212 330.5 190C326.667 205 314.6 241.7 297 260.5C305.412 225.59 315.239 191.742 316.065 156.277C315.234 184.958 306.934 219.767 277.5 254C282.5 210 275 181 272 167.5C270.5 190 260 232 234.5 260.5C243.5 217 258.5 136 248.5 97.5002C244.406 81.7369 227 69.0002 222 65Z" fill="#444442"/>
<path id="shade" d="M238 57.0004C231.6 57.0004 227 59.5004 222 65.0002C222 66.3335 222.8 68.6002 226 67.0002C229.2 65.4002 237.833 63.6669 244 65.0002C250.167 66.3335 263.5 69.3002 273.5 70.5002C286 72.0002 308 73.0002 329.5 69.0002C346.7 65.8002 359 58.0006 370.5 53.5004C382 49.0002 398.5 48.0002 411 44.5002C423.5 41.0002 439.5 36.0002 453.5 33.0002L454.512 32.7833C468.268 29.8338 483.872 26.4882 499 26.0002C514.5 25.5002 528 28.5002 528 28.5002C528 28.5002 526.5 26.0002 517 20.5002C507.5 15.0002 476 19.0001 451.5 23.0001C427 27.0001 377.5 41.5004 353 53.5004C315.716 71.7618 280.5 65.0002 272 63.5004C264.106 62.1076 246 57.0004 238 57.0004Z" fill="#6C6F69"/>
<path id="outline" d="M316.065 156.277C315.239 191.742 305.412 225.59 297 260.5C314.6 241.7 326.667 205 330.5 190C330.5 212 324 233.5 315.5 257.5C359 219.5 351.667 142.834 342.5 111C359.5 146 362 157.5 360.5 201C389.5 159 376.5 111 365 87.5002C382.5 109 388 141 397 181C405.5 153.5 403.374 127 400.874 109L401.052 109.467C406.526 123.897 413.5 142.278 413.5 168C436.657 136 415.667 93.8335 405.5 79.0002C427.5 96.5 437.5 115.5 437.5 153.5C458.7 130.3 455.5 88.0002 450 70.5002C462 89 468.5 112.5 470 134C492.4 106.8 487.5 70.5002 481.5 57.5C493.5 69 509.5 96.5 504 131C528.8 117.4 522.5 60.5 517 46.0002C533 61.5 535.5 67.5 544 91C551.884 77.6959 548.432 63.4207 547.059 57.7451L547 57.5C543.5 43 530 26 517 20.5C502.001 14.154 476 18.9999 451.5 22.9999C427 26.9999 377.5 41.5002 353 53.5002C315.716 71.7616 280.5 65 272 63.5002C264.106 62.1074 246 57.0002 238 57.0002C231.6 57.0002 227 59.5002 222 65C227 69.0002 244.406 81.7369 248.5 97.5002C258.5 136 243.5 217 234.5 260.5C260 232 270.5 190 272 167.5C275 181 282.5 210 277.5 254C306.934 219.767 315.234 184.958 316.065 156.277ZM316.065 156.277C316.221 149.582 316.056 142.829 315.5 136C316.013 142.305 316.273 149.099 316.065 156.277Z" stroke="black" stroke-width="5"/>
<path id="gray-strand2" d="M319 90.5C323.5 99.5 334.5 142.5 334.5 152" stroke="#747472" stroke-width="3"/>
<path id="gray-strand2_2" d="M329 78C338 85.5 343.5 102 347.5 114.5" stroke="#747472" stroke-width="3"/>
<path id="gray-strand2_3" d="M357 59C366 67.5 373.5 77.5 379 92.5" stroke="#747472" stroke-width="3"/>
<path id="gray-strand2_4" d="M376 55C387.04 63.5714 400 92.1429 400 103" stroke="#747472" stroke-width="3"/>
<path id="gray-strand2_5" d="M445.5 33C457 40.5 470.5 65.5 470.5 75" stroke="#747472" stroke-width="3"/>
<path id="gray-strand2_6" d="M464 31C471.5 38 474.5 43.5 479 53" stroke="#747472" stroke-width="3"/>
<path id="gray-strand2_7" d="M505 26C516.5 33.5 526 42 534 50.5" stroke="#747472" stroke-width="3"/>
<path id="gray-strand" d="M278 85.5C285.5 101 291.4 129.3 289 146.5" stroke="#747472" stroke-width="3"/>
<path id="black-strand8" d="M493.5 42.5C504 56 510.8 75.9 510 93.5" stroke="black" stroke-width="3"/>
<path id="black-strand7" d="M438.5 33C456 49.5 468.9 71 466.5 93" stroke="black" stroke-width="3"/>
<path id="black-strand6" d="M403 52C418.5 65 434.9 94.9 436.5 106.5" stroke="black" stroke-width="3"/>
<path id="black-strand5" d="M373 66.5C384 84 389 115.8 389 133" stroke="black" stroke-width="3"/>
<path id="black-strand4" d="M293.5 97C304.5 119 307.3 148.8 304.5 170" stroke="black" stroke-width="3"/>
<path id="black-strand3" d="M347 87.5C359.5 105.5 369.2 143.2 368 162" stroke="black" stroke-width="3"/>
<path id="black-strand2" d="M250.5 66.5C258.333 75.5 272.9 105.3 268.5 152.5" stroke="black" stroke-width="3"/>
<path id="black-strand" d="M290.5 70.5C295 76.1667 305.1 90.8 309.5 104" stroke="black" stroke-width="3"/>
</g>
</g>
</svg>